%TF.GenerationSoftware,KiCad,Pcbnew,8.0.7*%
%TF.CreationDate,2024-12-25T15:12:27+08:00*%
%TF.ProjectId,keyboard,6b657962-6f61-4726-942e-6b696361645f,rev?*%
%TF.SameCoordinates,Original*%
%TF.FileFunction,Paste,Bot*%
%TF.FilePolarity,Positive*%
%FSLAX46Y46*%
G04 Gerber Fmt 4.6, Leading zero omitted, Abs format (unit mm)*
G04 Created by KiCad (PCBNEW 8.0.7) date 2024-12-25 15:12:27*
%MOMM*%
%LPD*%
G01*
G04 APERTURE LIST*
G04 Aperture macros list*
%AMRoundRect*
0 Rectangle with rounded corners*
0 $1 Rounding radius*
0 $2 $3 $4 $5 $6 $7 $8 $9 X,Y pos of 4 corners*
0 Add a 4 corners polygon primitive as box body*
4,1,4,$2,$3,$4,$5,$6,$7,$8,$9,$2,$3,0*
0 Add four circle primitives for the rounded corners*
1,1,$1+$1,$2,$3*
1,1,$1+$1,$4,$5*
1,1,$1+$1,$6,$7*
1,1,$1+$1,$8,$9*
0 Add four rect primitives between the rounded corners*
20,1,$1+$1,$2,$3,$4,$5,0*
20,1,$1+$1,$4,$5,$6,$7,0*
20,1,$1+$1,$6,$7,$8,$9,0*
20,1,$1+$1,$8,$9,$2,$3,0*%
G04 Aperture macros list end*
%ADD10RoundRect,0.243750X0.456250X-0.243750X0.456250X0.243750X-0.456250X0.243750X-0.456250X-0.243750X0*%
G04 APERTURE END LIST*
D10*
%TO.C,D40*%
X327438000Y-89654500D03*
X327438000Y-87779500D03*
%TD*%
%TO.C,D32*%
X169958000Y-89654500D03*
X169958000Y-87779500D03*
%TD*%
%TO.C,D35*%
X227108000Y-89654500D03*
X227108000Y-87779500D03*
%TD*%
%TO.C,D25*%
X298228000Y-70592000D03*
X298228000Y-68717000D03*
%TD*%
%TO.C,D49*%
X255048000Y-108692000D03*
X255048000Y-106817000D03*
%TD*%
%TO.C,D55*%
X127095500Y-127119500D03*
X127095500Y-125244500D03*
%TD*%
%TO.C,D51*%
X293148000Y-108692000D03*
X293148000Y-106817000D03*
%TD*%
%TO.C,D18*%
X164878000Y-70592000D03*
X164878000Y-68717000D03*
%TD*%
%TO.C,D12*%
X307753000Y-51542000D03*
X307753000Y-49667000D03*
%TD*%
%TO.C,D6*%
X193453000Y-51542000D03*
X193453000Y-49667000D03*
%TD*%
%TO.C,D3*%
X136303000Y-51542000D03*
X136303000Y-49667000D03*
%TD*%
%TO.C,D8*%
X231553000Y-51542000D03*
X231553000Y-49667000D03*
%TD*%
%TO.C,D10*%
X269653000Y-51542000D03*
X269653000Y-49667000D03*
%TD*%
%TO.C,D14*%
X364268000Y-51554500D03*
X364268000Y-49679500D03*
%TD*%
%TO.C,D16*%
X126778000Y-70592000D03*
X126778000Y-68717000D03*
%TD*%
%TO.C,D30*%
X131858000Y-89654500D03*
X131858000Y-87779500D03*
%TD*%
%TO.C,D9*%
X250603000Y-51542000D03*
X250603000Y-49667000D03*
%TD*%
%TO.C,D41*%
X364268000Y-89654500D03*
X364268000Y-87779500D03*
%TD*%
%TO.C,D13*%
X331883000Y-51542000D03*
X331883000Y-49667000D03*
%TD*%
%TO.C,D52*%
X321088000Y-108692000D03*
X321088000Y-106817000D03*
%TD*%
%TO.C,D20*%
X202978000Y-70592000D03*
X202978000Y-68717000D03*
%TD*%
%TO.C,D57*%
X223298000Y-127754500D03*
X223298000Y-125879500D03*
%TD*%
%TO.C,D23*%
X260128000Y-70592000D03*
X260128000Y-68717000D03*
%TD*%
%TO.C,D31*%
X150908000Y-89654500D03*
X150908000Y-87779500D03*
%TD*%
%TO.C,D7*%
X212503000Y-51542000D03*
X212503000Y-49667000D03*
%TD*%
%TO.C,D47*%
X216948000Y-108692000D03*
X216948000Y-106817000D03*
%TD*%
%TO.C,D42*%
X116618000Y-108704500D03*
X116618000Y-106829500D03*
%TD*%
%TO.C,D53*%
X364268000Y-108704500D03*
X364268000Y-106829500D03*
%TD*%
%TO.C,D58*%
X293783000Y-127767000D03*
X293783000Y-125892000D03*
%TD*%
%TO.C,D22*%
X241078000Y-70592000D03*
X241078000Y-68717000D03*
%TD*%
%TO.C,D2*%
X117253000Y-51542000D03*
X117253000Y-49667000D03*
%TD*%
%TO.C,D46*%
X197898000Y-108692000D03*
X197898000Y-106817000D03*
%TD*%
%TO.C,D39*%
X303308000Y-89654500D03*
X303308000Y-87779500D03*
%TD*%
%TO.C,D56*%
X150908000Y-127119500D03*
X150908000Y-125244500D03*
%TD*%
%TO.C,D33*%
X189008000Y-89654500D03*
X189008000Y-87779500D03*
%TD*%
%TO.C,D29*%
X108363000Y-89654500D03*
X108363000Y-87779500D03*
%TD*%
%TO.C,D24*%
X279178000Y-70592000D03*
X279178000Y-68717000D03*
%TD*%
%TO.C,D48*%
X235998000Y-108692000D03*
X235998000Y-106817000D03*
%TD*%
%TO.C,D43*%
X140748000Y-108692000D03*
X140748000Y-106817000D03*
%TD*%
%TO.C,D34*%
X208058000Y-89654500D03*
X208058000Y-87779500D03*
%TD*%
%TO.C,D15*%
X105823000Y-70604500D03*
X105823000Y-68729500D03*
%TD*%
%TO.C,D17*%
X145828000Y-70592000D03*
X145828000Y-68717000D03*
%TD*%
%TO.C,D1*%
X98203000Y-51542000D03*
X98203000Y-49667000D03*
%TD*%
%TO.C,D19*%
X183928000Y-70592000D03*
X183928000Y-68717000D03*
%TD*%
%TO.C,D60*%
X341408000Y-127767000D03*
X341408000Y-125892000D03*
%TD*%
%TO.C,D37*%
X265208000Y-89654500D03*
X265208000Y-87779500D03*
%TD*%
%TO.C,D21*%
X222028000Y-70592000D03*
X222028000Y-68717000D03*
%TD*%
%TO.C,D4*%
X155353000Y-51542000D03*
X155353000Y-49667000D03*
%TD*%
%TO.C,D27*%
X338868000Y-70592000D03*
X338868000Y-68717000D03*
%TD*%
%TO.C,D26*%
X317278000Y-70592000D03*
X317278000Y-68717000D03*
%TD*%
%TO.C,D28*%
X364268000Y-70604500D03*
X364268000Y-68729500D03*
%TD*%
%TO.C,D11*%
X288703000Y-51542000D03*
X288703000Y-49667000D03*
%TD*%
%TO.C,D36*%
X246158000Y-89654500D03*
X246158000Y-87779500D03*
%TD*%
%TO.C,D38*%
X284258000Y-89654500D03*
X284258000Y-87779500D03*
%TD*%
%TO.C,D54*%
X103283000Y-127119500D03*
X103283000Y-125244500D03*
%TD*%
%TO.C,D45*%
X178848000Y-108692000D03*
X178848000Y-106817000D03*
%TD*%
%TO.C,D5*%
X174403000Y-51542000D03*
X174403000Y-49667000D03*
%TD*%
%TO.C,D44*%
X159798000Y-108692000D03*
X159798000Y-106817000D03*
%TD*%
%TO.C,D50*%
X274098000Y-108692000D03*
X274098000Y-106817000D03*
%TD*%
%TO.C,D59*%
X317595500Y-127767000D03*
X317595500Y-125892000D03*
%TD*%
%TO.C,D61*%
X364268000Y-127767000D03*
X364268000Y-125892000D03*
%TD*%
M02*
