M48
; DRILL file {KiCad 8.0.7} date 2024-12-25T15:12:20+0800
; FORMAT={-:-/ absolute / inch / decimal}
; #@! TF.CreationDate,2024-12-25T15:12:20+08:00
; #@! TF.GenerationSoftware,Kicad,Pcbnew,8.0.7
; #@! TF.FileFunction,NonPlated,1,2,NPTH
FMAT,2
INCH
; #@! TA.AperFunction,NonPlated,NPTH,ComponentDrill
T1C0.0669
; #@! TA.AperFunction,NonPlated,NPTH,ComponentDrill
T2C0.1201
; #@! TA.AperFunction,NonPlated,NPTH,ComponentDrill
T3C0.1260
; #@! TA.AperFunction,NonPlated,NPTH,ComponentDrill
T4C0.1575
%
G90
G05
T1
X3.295Y-1.98
X3.3887Y-4.98
X3.4825Y-2.73
X3.5762Y-3.48
X3.695Y-1.98
X3.7637Y-4.23
X3.7887Y-4.98
X3.8825Y-2.73
X3.9762Y-3.48
X4.045Y-1.98
X4.1638Y-4.23
X4.3262Y-4.98
X4.42Y-2.73
X4.445Y-1.98
X4.6075Y-3.48
X4.7263Y-4.98
X4.795Y-1.98
X4.82Y-2.73
X4.9825Y-4.23
X5.0075Y-3.48
X5.17Y-2.73
X5.195Y-1.98
X5.2637Y-4.98
X5.3575Y-3.48
X5.3825Y-4.23
X5.545Y-1.98
X5.57Y-2.73
X5.6638Y-4.98
X5.7325Y-4.23
X5.7575Y-3.48
X5.92Y-2.73
X5.945Y-1.98
X6.1075Y-3.48
X6.1325Y-4.23
X6.295Y-1.98
X6.32Y-2.73
X6.4825Y-4.23
X6.5075Y-3.48
X6.67Y-2.73
X6.695Y-1.98
X6.8575Y-3.48
X6.8825Y-4.23
X7.045Y-1.98
X7.07Y-2.73
X7.2325Y-4.23
X7.2575Y-3.48
X7.42Y-2.73
X7.445Y-1.98
X7.6075Y-3.48
X7.6325Y-4.23
X7.795Y-1.98
X7.82Y-2.73
X7.9825Y-4.23
X8.0075Y-3.48
X8.0762Y-4.98
X8.17Y-2.73
X8.195Y-1.98
X8.3575Y-3.48
X8.3825Y-4.23
X8.4763Y-4.98
X8.545Y-1.98
X8.57Y-2.73
X8.7325Y-4.23
X8.7575Y-3.48
X8.92Y-2.73
X8.945Y-1.98
X9.1075Y-3.48
X9.1325Y-4.23
X9.295Y-1.98
X9.32Y-2.73
X9.4825Y-4.23
X9.5075Y-3.48
X9.67Y-2.73
X9.695Y-1.98
X9.8575Y-3.48
X9.8825Y-4.23
X10.045Y-1.98
X10.07Y-2.73
X10.2325Y-4.23
X10.2575Y-3.48
X10.42Y-2.73
X10.445Y-1.98
X10.6075Y-3.48
X10.6325Y-4.23
X10.795Y-1.98
X10.82Y-2.73
X10.8887Y-4.98
X10.9825Y-4.23
X11.0075Y-3.48
X11.17Y-2.73
X11.195Y-1.98
X11.2888Y-4.98
X11.3575Y-3.48
X11.3825Y-4.23
X11.545Y-1.98
X11.57Y-2.73
X11.7325Y-4.23
X11.7575Y-3.48
X11.8262Y-4.98
X11.92Y-2.73
X11.945Y-1.98
X12.1075Y-3.48
X12.1325Y-4.23
X12.2263Y-4.98
X12.295Y-1.98
X12.32Y-2.73
X12.5075Y-3.48
X12.67Y-2.73
X12.695Y-1.98
X12.7637Y-4.98
X13.07Y-2.73
X13.1387Y-4.23
X13.1638Y-4.98
X13.3262Y-3.48
X13.42Y-1.98
X13.5388Y-4.23
X13.6075Y-2.73
X13.7012Y-4.98
X13.7263Y-3.48
X13.82Y-1.98
X14.0075Y-2.73
X14.1013Y-4.98
T2
X3.4952Y-3.9544
X4.4323Y-3.9544
X6.3077Y-4.7044
X10.2448Y-4.7044
X12.8702Y-3.9544
X13.0577Y-3.2044
X13.1515Y-1.7044
X13.8073Y-3.9544
X13.9948Y-3.2044
X14.0885Y-1.7044
T3
X1.7717Y-1.6929
X1.7717Y-5.4724
X14.6063Y-1.6929
X14.6063Y-5.4724
T4
X3.495Y-1.98
X3.4952Y-4.5544
X3.5888Y-4.98
X3.6825Y-2.73
X3.7763Y-3.48
X3.9638Y-4.23
X4.245Y-1.98
X4.4323Y-4.5544
X4.5263Y-4.98
X4.62Y-2.73
X4.8075Y-3.48
X4.995Y-1.98
X5.1825Y-4.23
X5.37Y-2.73
X5.4638Y-4.98
X5.5575Y-3.48
X5.745Y-1.98
X5.9325Y-4.23
X6.12Y-2.73
X6.3075Y-3.48
X6.3077Y-5.3044
X6.495Y-1.98
X6.6825Y-4.23
X6.87Y-2.73
X7.0575Y-3.48
X7.245Y-1.98
X7.4325Y-4.23
X7.62Y-2.73
X7.8075Y-3.48
X7.995Y-1.98
X8.1825Y-4.23
X8.2762Y-4.98
X8.37Y-2.73
X8.5575Y-3.48
X8.745Y-1.98
X8.9325Y-4.23
X9.12Y-2.73
X9.3075Y-3.48
X9.495Y-1.98
X9.6825Y-4.23
X9.87Y-2.73
X10.0575Y-3.48
X10.2448Y-5.3044
X10.245Y-1.98
X10.4325Y-4.23
X10.62Y-2.73
X10.8075Y-3.48
X10.995Y-1.98
X11.0887Y-4.98
X11.1825Y-4.23
X11.37Y-2.73
X11.5575Y-3.48
X11.745Y-1.98
X11.9325Y-4.23
X12.0262Y-4.98
X12.12Y-2.73
X12.3075Y-3.48
X12.495Y-1.98
X12.87Y-2.73
X12.8702Y-4.5544
X12.9637Y-4.98
X13.0577Y-3.8044
X13.1515Y-2.3044
X13.3387Y-4.23
X13.5262Y-3.48
X13.62Y-1.98
X13.8073Y-4.5544
X13.8075Y-2.73
X13.9012Y-4.98
X13.9948Y-3.8044
X14.0885Y-2.3044
M30
