M48
; DRILL file {KiCad 8.0.7} date 2024-12-25T15:12:20+0800
; FORMAT={-:-/ absolute / inch / decimal}
; #@! TF.CreationDate,2024-12-25T15:12:20+08:00
; #@! TF.GenerationSoftware,Kicad,Pcbnew,8.0.7
; #@! TF.FileFunction,Plated,1,2,PTH
FMAT,2
INCH
; #@! TA.AperFunction,Plated,PTH,ViaDrill
T1C0.0118
; #@! TA.AperFunction,Plated,PTH,ComponentDrill
T2C0.0591
%
G90
G05
T1
X1.995Y-4.37
X2.0Y-4.0
X2.0Y-4.11
X2.0Y-4.225
X2.135Y-4.0
X2.135Y-4.11
X2.14Y-4.23
X2.15Y-4.365
X2.25Y-4.0
X2.255Y-4.11
X2.26Y-4.23
X2.27Y-4.365
X2.33Y-2.795
X2.33Y-2.885
X2.33Y-2.965
X2.33Y-3.035
X2.33Y-3.11
X2.355Y-4.0
X2.355Y-4.105
X2.365Y-4.23
X2.375Y-4.365
X2.4Y-2.795
X2.4Y-2.885
X2.405Y-2.965
X2.405Y-3.035
X2.41Y-3.11
X2.465Y-2.0428
X2.475Y-2.795
X2.475Y-4.0
X2.475Y-4.105
X2.48Y-1.78
X2.48Y-1.915
X2.48Y-2.885
X2.48Y-2.965
X2.48Y-4.225
X2.485Y-3.035
X2.485Y-3.11
X2.495Y-4.365
X2.5Y-2.44
X2.555Y-2.795
X2.555Y-2.885
X2.555Y-2.965
X2.555Y-3.035
X2.56Y-3.11
X2.595Y-4.0
X2.595Y-4.105
X2.6Y-4.22
X2.61Y-4.365
X2.625Y-2.795
X2.625Y-2.885
X2.625Y-2.965
X2.625Y-3.035
X2.63Y-3.11
X2.69Y-2.095
X2.69Y-2.195
X2.71Y-4.0
X2.71Y-4.105
X2.72Y-4.22
X2.735Y-4.365
X3.005Y-3.045
X3.06Y-2.095
X3.06Y-3.145
X3.21Y-3.045
X3.24Y-3.135
X3.25Y-3.22
X3.305Y-2.98
X3.31Y-2.74
X3.31Y-2.845
X3.5Y-2.21
X3.57Y-2.2
X3.62Y-4.4
X3.685Y-3.045
X3.685Y-3.13
X3.71Y-1.85
X3.81Y-4.46
X3.815Y-3.81
X3.82Y-3.89
X3.845Y-1.885
X4.765Y-2.295
X5.615Y-2.2
X6.345Y-2.255
X7.065Y-2.395
X9.53Y-3.895
X9.81Y-3.895
X10.885Y-4.57
X11.225Y-4.575
X14.605Y-2.495
X14.605Y-2.765
X14.605Y-2.9
X14.605Y-3.055
X14.605Y-3.19
X14.605Y-3.33
X14.605Y-3.495
X14.605Y-3.685
X14.605Y-3.855
X14.605Y-4.395
X14.61Y-1.91
X14.61Y-2.065
X14.61Y-2.36
X14.61Y-2.63
X14.61Y-4.04
X14.61Y-4.225
X14.61Y-4.575
X14.615Y-2.21
X14.615Y-4.795
X14.62Y-5.015
X14.625Y-5.21
T2
X3.345Y-1.88
X3.4387Y-4.88
X3.5325Y-2.63
X3.595Y-1.78
X3.6262Y-3.38
X3.6887Y-4.78
X3.7825Y-2.53
X3.8137Y-4.13
X3.8762Y-3.28
X4.0637Y-4.03
X4.095Y-1.88
X4.345Y-1.78
X4.3762Y-4.88
X4.47Y-2.63
X4.6262Y-4.78
X4.6575Y-3.38
X4.72Y-2.53
X4.845Y-1.88
X4.9075Y-3.28
X5.0325Y-4.13
X5.095Y-1.78
X5.22Y-2.63
X5.2825Y-4.03
X5.3137Y-4.88
X5.4075Y-3.38
X5.47Y-2.53
X5.5637Y-4.78
X5.595Y-1.88
X5.6575Y-3.28
X5.7825Y-4.13
X5.845Y-1.78
X5.97Y-2.63
X6.0325Y-4.03
X6.1575Y-3.38
X6.22Y-2.53
X6.345Y-1.88
X6.4075Y-3.28
X6.5325Y-4.13
X6.595Y-1.78
X6.72Y-2.63
X6.7825Y-4.03
X6.9075Y-3.38
X6.97Y-2.53
X7.095Y-1.88
X7.1575Y-3.28
X7.2825Y-4.13
X7.345Y-1.78
X7.47Y-2.63
X7.5325Y-4.03
X7.6575Y-3.38
X7.72Y-2.53
X7.845Y-1.88
X7.9075Y-3.28
X8.0325Y-4.13
X8.095Y-1.78
X8.1263Y-4.88
X8.22Y-2.63
X8.2825Y-4.03
X8.3763Y-4.78
X8.4075Y-3.38
X8.47Y-2.53
X8.595Y-1.88
X8.6575Y-3.28
X8.7825Y-4.13
X8.845Y-1.78
X8.97Y-2.63
X9.0325Y-4.03
X9.1575Y-3.38
X9.22Y-2.53
X9.345Y-1.88
X9.4075Y-3.28
X9.5325Y-4.13
X9.595Y-1.78
X9.72Y-2.63
X9.7825Y-4.03
X9.9075Y-3.38
X9.97Y-2.53
X10.095Y-1.88
X10.1575Y-3.28
X10.2825Y-4.13
X10.345Y-1.78
X10.47Y-2.63
X10.5325Y-4.03
X10.6575Y-3.38
X10.72Y-2.53
X10.845Y-1.88
X10.9075Y-3.28
X10.9387Y-4.88
X11.0325Y-4.13
X11.095Y-1.78
X11.1887Y-4.78
X11.22Y-2.63
X11.2825Y-4.03
X11.4075Y-3.38
X11.47Y-2.53
X11.595Y-1.88
X11.6575Y-3.28
X11.7825Y-4.13
X11.845Y-1.78
X11.8762Y-4.88
X11.97Y-2.63
X12.0325Y-4.03
X12.1262Y-4.78
X12.1575Y-3.38
X12.22Y-2.53
X12.345Y-1.88
X12.4075Y-3.28
X12.595Y-1.78
X12.72Y-2.63
X12.8137Y-4.88
X12.97Y-2.53
X13.0637Y-4.78
X13.1887Y-4.13
X13.3762Y-3.38
X13.4387Y-4.03
X13.47Y-1.88
X13.6262Y-3.28
X13.6575Y-2.63
X13.72Y-1.78
X13.7512Y-4.88
X13.9075Y-2.53
X14.0012Y-4.78
M30
