%TF.GenerationSoftware,KiCad,Pcbnew,8.0.7*%
%TF.CreationDate,2024-12-25T15:12:27+08:00*%
%TF.ProjectId,keyboard,6b657962-6f61-4726-942e-6b696361645f,rev?*%
%TF.SameCoordinates,Original*%
%TF.FileFunction,Legend,Bot*%
%TF.FilePolarity,Positive*%
%FSLAX46Y46*%
G04 Gerber Fmt 4.6, Leading zero omitted, Abs format (unit mm)*
G04 Created by KiCad (PCBNEW 8.0.7) date 2024-12-25 15:12:27*
%MOMM*%
%LPD*%
G01*
G04 APERTURE LIST*
%ADD10C,0.150000*%
%ADD11C,0.120000*%
G04 APERTURE END LIST*
D10*
X329638819Y-87502714D02*
X328638819Y-87502714D01*
X328638819Y-87502714D02*
X328638819Y-87740809D01*
X328638819Y-87740809D02*
X328686438Y-87883666D01*
X328686438Y-87883666D02*
X328781676Y-87978904D01*
X328781676Y-87978904D02*
X328876914Y-88026523D01*
X328876914Y-88026523D02*
X329067390Y-88074142D01*
X329067390Y-88074142D02*
X329210247Y-88074142D01*
X329210247Y-88074142D02*
X329400723Y-88026523D01*
X329400723Y-88026523D02*
X329495961Y-87978904D01*
X329495961Y-87978904D02*
X329591200Y-87883666D01*
X329591200Y-87883666D02*
X329638819Y-87740809D01*
X329638819Y-87740809D02*
X329638819Y-87502714D01*
X328972152Y-88931285D02*
X329638819Y-88931285D01*
X328591200Y-88693190D02*
X329305485Y-88455095D01*
X329305485Y-88455095D02*
X329305485Y-89074142D01*
X328638819Y-89645571D02*
X328638819Y-89740809D01*
X328638819Y-89740809D02*
X328686438Y-89836047D01*
X328686438Y-89836047D02*
X328734057Y-89883666D01*
X328734057Y-89883666D02*
X328829295Y-89931285D01*
X328829295Y-89931285D02*
X329019771Y-89978904D01*
X329019771Y-89978904D02*
X329257866Y-89978904D01*
X329257866Y-89978904D02*
X329448342Y-89931285D01*
X329448342Y-89931285D02*
X329543580Y-89883666D01*
X329543580Y-89883666D02*
X329591200Y-89836047D01*
X329591200Y-89836047D02*
X329638819Y-89740809D01*
X329638819Y-89740809D02*
X329638819Y-89645571D01*
X329638819Y-89645571D02*
X329591200Y-89550333D01*
X329591200Y-89550333D02*
X329543580Y-89502714D01*
X329543580Y-89502714D02*
X329448342Y-89455095D01*
X329448342Y-89455095D02*
X329257866Y-89407476D01*
X329257866Y-89407476D02*
X329019771Y-89407476D01*
X329019771Y-89407476D02*
X328829295Y-89455095D01*
X328829295Y-89455095D02*
X328734057Y-89502714D01*
X328734057Y-89502714D02*
X328686438Y-89550333D01*
X328686438Y-89550333D02*
X328638819Y-89645571D01*
X172062819Y-87502714D02*
X171062819Y-87502714D01*
X171062819Y-87502714D02*
X171062819Y-87740809D01*
X171062819Y-87740809D02*
X171110438Y-87883666D01*
X171110438Y-87883666D02*
X171205676Y-87978904D01*
X171205676Y-87978904D02*
X171300914Y-88026523D01*
X171300914Y-88026523D02*
X171491390Y-88074142D01*
X171491390Y-88074142D02*
X171634247Y-88074142D01*
X171634247Y-88074142D02*
X171824723Y-88026523D01*
X171824723Y-88026523D02*
X171919961Y-87978904D01*
X171919961Y-87978904D02*
X172015200Y-87883666D01*
X172015200Y-87883666D02*
X172062819Y-87740809D01*
X172062819Y-87740809D02*
X172062819Y-87502714D01*
X171062819Y-88407476D02*
X171062819Y-89026523D01*
X171062819Y-89026523D02*
X171443771Y-88693190D01*
X171443771Y-88693190D02*
X171443771Y-88836047D01*
X171443771Y-88836047D02*
X171491390Y-88931285D01*
X171491390Y-88931285D02*
X171539009Y-88978904D01*
X171539009Y-88978904D02*
X171634247Y-89026523D01*
X171634247Y-89026523D02*
X171872342Y-89026523D01*
X171872342Y-89026523D02*
X171967580Y-88978904D01*
X171967580Y-88978904D02*
X172015200Y-88931285D01*
X172015200Y-88931285D02*
X172062819Y-88836047D01*
X172062819Y-88836047D02*
X172062819Y-88550333D01*
X172062819Y-88550333D02*
X172015200Y-88455095D01*
X172015200Y-88455095D02*
X171967580Y-88407476D01*
X171158057Y-89407476D02*
X171110438Y-89455095D01*
X171110438Y-89455095D02*
X171062819Y-89550333D01*
X171062819Y-89550333D02*
X171062819Y-89788428D01*
X171062819Y-89788428D02*
X171110438Y-89883666D01*
X171110438Y-89883666D02*
X171158057Y-89931285D01*
X171158057Y-89931285D02*
X171253295Y-89978904D01*
X171253295Y-89978904D02*
X171348533Y-89978904D01*
X171348533Y-89978904D02*
X171491390Y-89931285D01*
X171491390Y-89931285D02*
X172062819Y-89359857D01*
X172062819Y-89359857D02*
X172062819Y-89978904D01*
X229212819Y-87502714D02*
X228212819Y-87502714D01*
X228212819Y-87502714D02*
X228212819Y-87740809D01*
X228212819Y-87740809D02*
X228260438Y-87883666D01*
X228260438Y-87883666D02*
X228355676Y-87978904D01*
X228355676Y-87978904D02*
X228450914Y-88026523D01*
X228450914Y-88026523D02*
X228641390Y-88074142D01*
X228641390Y-88074142D02*
X228784247Y-88074142D01*
X228784247Y-88074142D02*
X228974723Y-88026523D01*
X228974723Y-88026523D02*
X229069961Y-87978904D01*
X229069961Y-87978904D02*
X229165200Y-87883666D01*
X229165200Y-87883666D02*
X229212819Y-87740809D01*
X229212819Y-87740809D02*
X229212819Y-87502714D01*
X228212819Y-88407476D02*
X228212819Y-89026523D01*
X228212819Y-89026523D02*
X228593771Y-88693190D01*
X228593771Y-88693190D02*
X228593771Y-88836047D01*
X228593771Y-88836047D02*
X228641390Y-88931285D01*
X228641390Y-88931285D02*
X228689009Y-88978904D01*
X228689009Y-88978904D02*
X228784247Y-89026523D01*
X228784247Y-89026523D02*
X229022342Y-89026523D01*
X229022342Y-89026523D02*
X229117580Y-88978904D01*
X229117580Y-88978904D02*
X229165200Y-88931285D01*
X229165200Y-88931285D02*
X229212819Y-88836047D01*
X229212819Y-88836047D02*
X229212819Y-88550333D01*
X229212819Y-88550333D02*
X229165200Y-88455095D01*
X229165200Y-88455095D02*
X229117580Y-88407476D01*
X228212819Y-89931285D02*
X228212819Y-89455095D01*
X228212819Y-89455095D02*
X228689009Y-89407476D01*
X228689009Y-89407476D02*
X228641390Y-89455095D01*
X228641390Y-89455095D02*
X228593771Y-89550333D01*
X228593771Y-89550333D02*
X228593771Y-89788428D01*
X228593771Y-89788428D02*
X228641390Y-89883666D01*
X228641390Y-89883666D02*
X228689009Y-89931285D01*
X228689009Y-89931285D02*
X228784247Y-89978904D01*
X228784247Y-89978904D02*
X229022342Y-89978904D01*
X229022342Y-89978904D02*
X229117580Y-89931285D01*
X229117580Y-89931285D02*
X229165200Y-89883666D01*
X229165200Y-89883666D02*
X229212819Y-89788428D01*
X229212819Y-89788428D02*
X229212819Y-89550333D01*
X229212819Y-89550333D02*
X229165200Y-89455095D01*
X229165200Y-89455095D02*
X229117580Y-89407476D01*
X300332819Y-68440214D02*
X299332819Y-68440214D01*
X299332819Y-68440214D02*
X299332819Y-68678309D01*
X299332819Y-68678309D02*
X299380438Y-68821166D01*
X299380438Y-68821166D02*
X299475676Y-68916404D01*
X299475676Y-68916404D02*
X299570914Y-68964023D01*
X299570914Y-68964023D02*
X299761390Y-69011642D01*
X299761390Y-69011642D02*
X299904247Y-69011642D01*
X299904247Y-69011642D02*
X300094723Y-68964023D01*
X300094723Y-68964023D02*
X300189961Y-68916404D01*
X300189961Y-68916404D02*
X300285200Y-68821166D01*
X300285200Y-68821166D02*
X300332819Y-68678309D01*
X300332819Y-68678309D02*
X300332819Y-68440214D01*
X299428057Y-69392595D02*
X299380438Y-69440214D01*
X299380438Y-69440214D02*
X299332819Y-69535452D01*
X299332819Y-69535452D02*
X299332819Y-69773547D01*
X299332819Y-69773547D02*
X299380438Y-69868785D01*
X299380438Y-69868785D02*
X299428057Y-69916404D01*
X299428057Y-69916404D02*
X299523295Y-69964023D01*
X299523295Y-69964023D02*
X299618533Y-69964023D01*
X299618533Y-69964023D02*
X299761390Y-69916404D01*
X299761390Y-69916404D02*
X300332819Y-69344976D01*
X300332819Y-69344976D02*
X300332819Y-69964023D01*
X299332819Y-70868785D02*
X299332819Y-70392595D01*
X299332819Y-70392595D02*
X299809009Y-70344976D01*
X299809009Y-70344976D02*
X299761390Y-70392595D01*
X299761390Y-70392595D02*
X299713771Y-70487833D01*
X299713771Y-70487833D02*
X299713771Y-70725928D01*
X299713771Y-70725928D02*
X299761390Y-70821166D01*
X299761390Y-70821166D02*
X299809009Y-70868785D01*
X299809009Y-70868785D02*
X299904247Y-70916404D01*
X299904247Y-70916404D02*
X300142342Y-70916404D01*
X300142342Y-70916404D02*
X300237580Y-70868785D01*
X300237580Y-70868785D02*
X300285200Y-70821166D01*
X300285200Y-70821166D02*
X300332819Y-70725928D01*
X300332819Y-70725928D02*
X300332819Y-70487833D01*
X300332819Y-70487833D02*
X300285200Y-70392595D01*
X300285200Y-70392595D02*
X300237580Y-70344976D01*
X257248819Y-106540214D02*
X256248819Y-106540214D01*
X256248819Y-106540214D02*
X256248819Y-106778309D01*
X256248819Y-106778309D02*
X256296438Y-106921166D01*
X256296438Y-106921166D02*
X256391676Y-107016404D01*
X256391676Y-107016404D02*
X256486914Y-107064023D01*
X256486914Y-107064023D02*
X256677390Y-107111642D01*
X256677390Y-107111642D02*
X256820247Y-107111642D01*
X256820247Y-107111642D02*
X257010723Y-107064023D01*
X257010723Y-107064023D02*
X257105961Y-107016404D01*
X257105961Y-107016404D02*
X257201200Y-106921166D01*
X257201200Y-106921166D02*
X257248819Y-106778309D01*
X257248819Y-106778309D02*
X257248819Y-106540214D01*
X256582152Y-107968785D02*
X257248819Y-107968785D01*
X256201200Y-107730690D02*
X256915485Y-107492595D01*
X256915485Y-107492595D02*
X256915485Y-108111642D01*
X257248819Y-108540214D02*
X257248819Y-108730690D01*
X257248819Y-108730690D02*
X257201200Y-108825928D01*
X257201200Y-108825928D02*
X257153580Y-108873547D01*
X257153580Y-108873547D02*
X257010723Y-108968785D01*
X257010723Y-108968785D02*
X256820247Y-109016404D01*
X256820247Y-109016404D02*
X256439295Y-109016404D01*
X256439295Y-109016404D02*
X256344057Y-108968785D01*
X256344057Y-108968785D02*
X256296438Y-108921166D01*
X256296438Y-108921166D02*
X256248819Y-108825928D01*
X256248819Y-108825928D02*
X256248819Y-108635452D01*
X256248819Y-108635452D02*
X256296438Y-108540214D01*
X256296438Y-108540214D02*
X256344057Y-108492595D01*
X256344057Y-108492595D02*
X256439295Y-108444976D01*
X256439295Y-108444976D02*
X256677390Y-108444976D01*
X256677390Y-108444976D02*
X256772628Y-108492595D01*
X256772628Y-108492595D02*
X256820247Y-108540214D01*
X256820247Y-108540214D02*
X256867866Y-108635452D01*
X256867866Y-108635452D02*
X256867866Y-108825928D01*
X256867866Y-108825928D02*
X256820247Y-108921166D01*
X256820247Y-108921166D02*
X256772628Y-108968785D01*
X256772628Y-108968785D02*
X256677390Y-109016404D01*
X129200319Y-124967714D02*
X128200319Y-124967714D01*
X128200319Y-124967714D02*
X128200319Y-125205809D01*
X128200319Y-125205809D02*
X128247938Y-125348666D01*
X128247938Y-125348666D02*
X128343176Y-125443904D01*
X128343176Y-125443904D02*
X128438414Y-125491523D01*
X128438414Y-125491523D02*
X128628890Y-125539142D01*
X128628890Y-125539142D02*
X128771747Y-125539142D01*
X128771747Y-125539142D02*
X128962223Y-125491523D01*
X128962223Y-125491523D02*
X129057461Y-125443904D01*
X129057461Y-125443904D02*
X129152700Y-125348666D01*
X129152700Y-125348666D02*
X129200319Y-125205809D01*
X129200319Y-125205809D02*
X129200319Y-124967714D01*
X128200319Y-126443904D02*
X128200319Y-125967714D01*
X128200319Y-125967714D02*
X128676509Y-125920095D01*
X128676509Y-125920095D02*
X128628890Y-125967714D01*
X128628890Y-125967714D02*
X128581271Y-126062952D01*
X128581271Y-126062952D02*
X128581271Y-126301047D01*
X128581271Y-126301047D02*
X128628890Y-126396285D01*
X128628890Y-126396285D02*
X128676509Y-126443904D01*
X128676509Y-126443904D02*
X128771747Y-126491523D01*
X128771747Y-126491523D02*
X129009842Y-126491523D01*
X129009842Y-126491523D02*
X129105080Y-126443904D01*
X129105080Y-126443904D02*
X129152700Y-126396285D01*
X129152700Y-126396285D02*
X129200319Y-126301047D01*
X129200319Y-126301047D02*
X129200319Y-126062952D01*
X129200319Y-126062952D02*
X129152700Y-125967714D01*
X129152700Y-125967714D02*
X129105080Y-125920095D01*
X128200319Y-127396285D02*
X128200319Y-126920095D01*
X128200319Y-126920095D02*
X128676509Y-126872476D01*
X128676509Y-126872476D02*
X128628890Y-126920095D01*
X128628890Y-126920095D02*
X128581271Y-127015333D01*
X128581271Y-127015333D02*
X128581271Y-127253428D01*
X128581271Y-127253428D02*
X128628890Y-127348666D01*
X128628890Y-127348666D02*
X128676509Y-127396285D01*
X128676509Y-127396285D02*
X128771747Y-127443904D01*
X128771747Y-127443904D02*
X129009842Y-127443904D01*
X129009842Y-127443904D02*
X129105080Y-127396285D01*
X129105080Y-127396285D02*
X129152700Y-127348666D01*
X129152700Y-127348666D02*
X129200319Y-127253428D01*
X129200319Y-127253428D02*
X129200319Y-127015333D01*
X129200319Y-127015333D02*
X129152700Y-126920095D01*
X129152700Y-126920095D02*
X129105080Y-126872476D01*
X295252819Y-106540214D02*
X294252819Y-106540214D01*
X294252819Y-106540214D02*
X294252819Y-106778309D01*
X294252819Y-106778309D02*
X294300438Y-106921166D01*
X294300438Y-106921166D02*
X294395676Y-107016404D01*
X294395676Y-107016404D02*
X294490914Y-107064023D01*
X294490914Y-107064023D02*
X294681390Y-107111642D01*
X294681390Y-107111642D02*
X294824247Y-107111642D01*
X294824247Y-107111642D02*
X295014723Y-107064023D01*
X295014723Y-107064023D02*
X295109961Y-107016404D01*
X295109961Y-107016404D02*
X295205200Y-106921166D01*
X295205200Y-106921166D02*
X295252819Y-106778309D01*
X295252819Y-106778309D02*
X295252819Y-106540214D01*
X294252819Y-108016404D02*
X294252819Y-107540214D01*
X294252819Y-107540214D02*
X294729009Y-107492595D01*
X294729009Y-107492595D02*
X294681390Y-107540214D01*
X294681390Y-107540214D02*
X294633771Y-107635452D01*
X294633771Y-107635452D02*
X294633771Y-107873547D01*
X294633771Y-107873547D02*
X294681390Y-107968785D01*
X294681390Y-107968785D02*
X294729009Y-108016404D01*
X294729009Y-108016404D02*
X294824247Y-108064023D01*
X294824247Y-108064023D02*
X295062342Y-108064023D01*
X295062342Y-108064023D02*
X295157580Y-108016404D01*
X295157580Y-108016404D02*
X295205200Y-107968785D01*
X295205200Y-107968785D02*
X295252819Y-107873547D01*
X295252819Y-107873547D02*
X295252819Y-107635452D01*
X295252819Y-107635452D02*
X295205200Y-107540214D01*
X295205200Y-107540214D02*
X295157580Y-107492595D01*
X295252819Y-109016404D02*
X295252819Y-108444976D01*
X295252819Y-108730690D02*
X294252819Y-108730690D01*
X294252819Y-108730690D02*
X294395676Y-108635452D01*
X294395676Y-108635452D02*
X294490914Y-108540214D01*
X294490914Y-108540214D02*
X294538533Y-108444976D01*
X166982819Y-68440214D02*
X165982819Y-68440214D01*
X165982819Y-68440214D02*
X165982819Y-68678309D01*
X165982819Y-68678309D02*
X166030438Y-68821166D01*
X166030438Y-68821166D02*
X166125676Y-68916404D01*
X166125676Y-68916404D02*
X166220914Y-68964023D01*
X166220914Y-68964023D02*
X166411390Y-69011642D01*
X166411390Y-69011642D02*
X166554247Y-69011642D01*
X166554247Y-69011642D02*
X166744723Y-68964023D01*
X166744723Y-68964023D02*
X166839961Y-68916404D01*
X166839961Y-68916404D02*
X166935200Y-68821166D01*
X166935200Y-68821166D02*
X166982819Y-68678309D01*
X166982819Y-68678309D02*
X166982819Y-68440214D01*
X166982819Y-69964023D02*
X166982819Y-69392595D01*
X166982819Y-69678309D02*
X165982819Y-69678309D01*
X165982819Y-69678309D02*
X166125676Y-69583071D01*
X166125676Y-69583071D02*
X166220914Y-69487833D01*
X166220914Y-69487833D02*
X166268533Y-69392595D01*
X166411390Y-70535452D02*
X166363771Y-70440214D01*
X166363771Y-70440214D02*
X166316152Y-70392595D01*
X166316152Y-70392595D02*
X166220914Y-70344976D01*
X166220914Y-70344976D02*
X166173295Y-70344976D01*
X166173295Y-70344976D02*
X166078057Y-70392595D01*
X166078057Y-70392595D02*
X166030438Y-70440214D01*
X166030438Y-70440214D02*
X165982819Y-70535452D01*
X165982819Y-70535452D02*
X165982819Y-70725928D01*
X165982819Y-70725928D02*
X166030438Y-70821166D01*
X166030438Y-70821166D02*
X166078057Y-70868785D01*
X166078057Y-70868785D02*
X166173295Y-70916404D01*
X166173295Y-70916404D02*
X166220914Y-70916404D01*
X166220914Y-70916404D02*
X166316152Y-70868785D01*
X166316152Y-70868785D02*
X166363771Y-70821166D01*
X166363771Y-70821166D02*
X166411390Y-70725928D01*
X166411390Y-70725928D02*
X166411390Y-70535452D01*
X166411390Y-70535452D02*
X166459009Y-70440214D01*
X166459009Y-70440214D02*
X166506628Y-70392595D01*
X166506628Y-70392595D02*
X166601866Y-70344976D01*
X166601866Y-70344976D02*
X166792342Y-70344976D01*
X166792342Y-70344976D02*
X166887580Y-70392595D01*
X166887580Y-70392595D02*
X166935200Y-70440214D01*
X166935200Y-70440214D02*
X166982819Y-70535452D01*
X166982819Y-70535452D02*
X166982819Y-70725928D01*
X166982819Y-70725928D02*
X166935200Y-70821166D01*
X166935200Y-70821166D02*
X166887580Y-70868785D01*
X166887580Y-70868785D02*
X166792342Y-70916404D01*
X166792342Y-70916404D02*
X166601866Y-70916404D01*
X166601866Y-70916404D02*
X166506628Y-70868785D01*
X166506628Y-70868785D02*
X166459009Y-70821166D01*
X166459009Y-70821166D02*
X166411390Y-70725928D01*
X309857819Y-49390214D02*
X308857819Y-49390214D01*
X308857819Y-49390214D02*
X308857819Y-49628309D01*
X308857819Y-49628309D02*
X308905438Y-49771166D01*
X308905438Y-49771166D02*
X309000676Y-49866404D01*
X309000676Y-49866404D02*
X309095914Y-49914023D01*
X309095914Y-49914023D02*
X309286390Y-49961642D01*
X309286390Y-49961642D02*
X309429247Y-49961642D01*
X309429247Y-49961642D02*
X309619723Y-49914023D01*
X309619723Y-49914023D02*
X309714961Y-49866404D01*
X309714961Y-49866404D02*
X309810200Y-49771166D01*
X309810200Y-49771166D02*
X309857819Y-49628309D01*
X309857819Y-49628309D02*
X309857819Y-49390214D01*
X309857819Y-50914023D02*
X309857819Y-50342595D01*
X309857819Y-50628309D02*
X308857819Y-50628309D01*
X308857819Y-50628309D02*
X309000676Y-50533071D01*
X309000676Y-50533071D02*
X309095914Y-50437833D01*
X309095914Y-50437833D02*
X309143533Y-50342595D01*
X308953057Y-51294976D02*
X308905438Y-51342595D01*
X308905438Y-51342595D02*
X308857819Y-51437833D01*
X308857819Y-51437833D02*
X308857819Y-51675928D01*
X308857819Y-51675928D02*
X308905438Y-51771166D01*
X308905438Y-51771166D02*
X308953057Y-51818785D01*
X308953057Y-51818785D02*
X309048295Y-51866404D01*
X309048295Y-51866404D02*
X309143533Y-51866404D01*
X309143533Y-51866404D02*
X309286390Y-51818785D01*
X309286390Y-51818785D02*
X309857819Y-51247357D01*
X309857819Y-51247357D02*
X309857819Y-51866404D01*
X195557819Y-49866405D02*
X194557819Y-49866405D01*
X194557819Y-49866405D02*
X194557819Y-50104500D01*
X194557819Y-50104500D02*
X194605438Y-50247357D01*
X194605438Y-50247357D02*
X194700676Y-50342595D01*
X194700676Y-50342595D02*
X194795914Y-50390214D01*
X194795914Y-50390214D02*
X194986390Y-50437833D01*
X194986390Y-50437833D02*
X195129247Y-50437833D01*
X195129247Y-50437833D02*
X195319723Y-50390214D01*
X195319723Y-50390214D02*
X195414961Y-50342595D01*
X195414961Y-50342595D02*
X195510200Y-50247357D01*
X195510200Y-50247357D02*
X195557819Y-50104500D01*
X195557819Y-50104500D02*
X195557819Y-49866405D01*
X194557819Y-51294976D02*
X194557819Y-51104500D01*
X194557819Y-51104500D02*
X194605438Y-51009262D01*
X194605438Y-51009262D02*
X194653057Y-50961643D01*
X194653057Y-50961643D02*
X194795914Y-50866405D01*
X194795914Y-50866405D02*
X194986390Y-50818786D01*
X194986390Y-50818786D02*
X195367342Y-50818786D01*
X195367342Y-50818786D02*
X195462580Y-50866405D01*
X195462580Y-50866405D02*
X195510200Y-50914024D01*
X195510200Y-50914024D02*
X195557819Y-51009262D01*
X195557819Y-51009262D02*
X195557819Y-51199738D01*
X195557819Y-51199738D02*
X195510200Y-51294976D01*
X195510200Y-51294976D02*
X195462580Y-51342595D01*
X195462580Y-51342595D02*
X195367342Y-51390214D01*
X195367342Y-51390214D02*
X195129247Y-51390214D01*
X195129247Y-51390214D02*
X195034009Y-51342595D01*
X195034009Y-51342595D02*
X194986390Y-51294976D01*
X194986390Y-51294976D02*
X194938771Y-51199738D01*
X194938771Y-51199738D02*
X194938771Y-51009262D01*
X194938771Y-51009262D02*
X194986390Y-50914024D01*
X194986390Y-50914024D02*
X195034009Y-50866405D01*
X195034009Y-50866405D02*
X195129247Y-50818786D01*
X138407819Y-49866405D02*
X137407819Y-49866405D01*
X137407819Y-49866405D02*
X137407819Y-50104500D01*
X137407819Y-50104500D02*
X137455438Y-50247357D01*
X137455438Y-50247357D02*
X137550676Y-50342595D01*
X137550676Y-50342595D02*
X137645914Y-50390214D01*
X137645914Y-50390214D02*
X137836390Y-50437833D01*
X137836390Y-50437833D02*
X137979247Y-50437833D01*
X137979247Y-50437833D02*
X138169723Y-50390214D01*
X138169723Y-50390214D02*
X138264961Y-50342595D01*
X138264961Y-50342595D02*
X138360200Y-50247357D01*
X138360200Y-50247357D02*
X138407819Y-50104500D01*
X138407819Y-50104500D02*
X138407819Y-49866405D01*
X137407819Y-50771167D02*
X137407819Y-51390214D01*
X137407819Y-51390214D02*
X137788771Y-51056881D01*
X137788771Y-51056881D02*
X137788771Y-51199738D01*
X137788771Y-51199738D02*
X137836390Y-51294976D01*
X137836390Y-51294976D02*
X137884009Y-51342595D01*
X137884009Y-51342595D02*
X137979247Y-51390214D01*
X137979247Y-51390214D02*
X138217342Y-51390214D01*
X138217342Y-51390214D02*
X138312580Y-51342595D01*
X138312580Y-51342595D02*
X138360200Y-51294976D01*
X138360200Y-51294976D02*
X138407819Y-51199738D01*
X138407819Y-51199738D02*
X138407819Y-50914024D01*
X138407819Y-50914024D02*
X138360200Y-50818786D01*
X138360200Y-50818786D02*
X138312580Y-50771167D01*
X233657819Y-49866405D02*
X232657819Y-49866405D01*
X232657819Y-49866405D02*
X232657819Y-50104500D01*
X232657819Y-50104500D02*
X232705438Y-50247357D01*
X232705438Y-50247357D02*
X232800676Y-50342595D01*
X232800676Y-50342595D02*
X232895914Y-50390214D01*
X232895914Y-50390214D02*
X233086390Y-50437833D01*
X233086390Y-50437833D02*
X233229247Y-50437833D01*
X233229247Y-50437833D02*
X233419723Y-50390214D01*
X233419723Y-50390214D02*
X233514961Y-50342595D01*
X233514961Y-50342595D02*
X233610200Y-50247357D01*
X233610200Y-50247357D02*
X233657819Y-50104500D01*
X233657819Y-50104500D02*
X233657819Y-49866405D01*
X233086390Y-51009262D02*
X233038771Y-50914024D01*
X233038771Y-50914024D02*
X232991152Y-50866405D01*
X232991152Y-50866405D02*
X232895914Y-50818786D01*
X232895914Y-50818786D02*
X232848295Y-50818786D01*
X232848295Y-50818786D02*
X232753057Y-50866405D01*
X232753057Y-50866405D02*
X232705438Y-50914024D01*
X232705438Y-50914024D02*
X232657819Y-51009262D01*
X232657819Y-51009262D02*
X232657819Y-51199738D01*
X232657819Y-51199738D02*
X232705438Y-51294976D01*
X232705438Y-51294976D02*
X232753057Y-51342595D01*
X232753057Y-51342595D02*
X232848295Y-51390214D01*
X232848295Y-51390214D02*
X232895914Y-51390214D01*
X232895914Y-51390214D02*
X232991152Y-51342595D01*
X232991152Y-51342595D02*
X233038771Y-51294976D01*
X233038771Y-51294976D02*
X233086390Y-51199738D01*
X233086390Y-51199738D02*
X233086390Y-51009262D01*
X233086390Y-51009262D02*
X233134009Y-50914024D01*
X233134009Y-50914024D02*
X233181628Y-50866405D01*
X233181628Y-50866405D02*
X233276866Y-50818786D01*
X233276866Y-50818786D02*
X233467342Y-50818786D01*
X233467342Y-50818786D02*
X233562580Y-50866405D01*
X233562580Y-50866405D02*
X233610200Y-50914024D01*
X233610200Y-50914024D02*
X233657819Y-51009262D01*
X233657819Y-51009262D02*
X233657819Y-51199738D01*
X233657819Y-51199738D02*
X233610200Y-51294976D01*
X233610200Y-51294976D02*
X233562580Y-51342595D01*
X233562580Y-51342595D02*
X233467342Y-51390214D01*
X233467342Y-51390214D02*
X233276866Y-51390214D01*
X233276866Y-51390214D02*
X233181628Y-51342595D01*
X233181628Y-51342595D02*
X233134009Y-51294976D01*
X233134009Y-51294976D02*
X233086390Y-51199738D01*
X271757819Y-49390214D02*
X270757819Y-49390214D01*
X270757819Y-49390214D02*
X270757819Y-49628309D01*
X270757819Y-49628309D02*
X270805438Y-49771166D01*
X270805438Y-49771166D02*
X270900676Y-49866404D01*
X270900676Y-49866404D02*
X270995914Y-49914023D01*
X270995914Y-49914023D02*
X271186390Y-49961642D01*
X271186390Y-49961642D02*
X271329247Y-49961642D01*
X271329247Y-49961642D02*
X271519723Y-49914023D01*
X271519723Y-49914023D02*
X271614961Y-49866404D01*
X271614961Y-49866404D02*
X271710200Y-49771166D01*
X271710200Y-49771166D02*
X271757819Y-49628309D01*
X271757819Y-49628309D02*
X271757819Y-49390214D01*
X271757819Y-50914023D02*
X271757819Y-50342595D01*
X271757819Y-50628309D02*
X270757819Y-50628309D01*
X270757819Y-50628309D02*
X270900676Y-50533071D01*
X270900676Y-50533071D02*
X270995914Y-50437833D01*
X270995914Y-50437833D02*
X271043533Y-50342595D01*
X270757819Y-51533071D02*
X270757819Y-51628309D01*
X270757819Y-51628309D02*
X270805438Y-51723547D01*
X270805438Y-51723547D02*
X270853057Y-51771166D01*
X270853057Y-51771166D02*
X270948295Y-51818785D01*
X270948295Y-51818785D02*
X271138771Y-51866404D01*
X271138771Y-51866404D02*
X271376866Y-51866404D01*
X271376866Y-51866404D02*
X271567342Y-51818785D01*
X271567342Y-51818785D02*
X271662580Y-51771166D01*
X271662580Y-51771166D02*
X271710200Y-51723547D01*
X271710200Y-51723547D02*
X271757819Y-51628309D01*
X271757819Y-51628309D02*
X271757819Y-51533071D01*
X271757819Y-51533071D02*
X271710200Y-51437833D01*
X271710200Y-51437833D02*
X271662580Y-51390214D01*
X271662580Y-51390214D02*
X271567342Y-51342595D01*
X271567342Y-51342595D02*
X271376866Y-51294976D01*
X271376866Y-51294976D02*
X271138771Y-51294976D01*
X271138771Y-51294976D02*
X270948295Y-51342595D01*
X270948295Y-51342595D02*
X270853057Y-51390214D01*
X270853057Y-51390214D02*
X270805438Y-51437833D01*
X270805438Y-51437833D02*
X270757819Y-51533071D01*
X366468819Y-49402714D02*
X365468819Y-49402714D01*
X365468819Y-49402714D02*
X365468819Y-49640809D01*
X365468819Y-49640809D02*
X365516438Y-49783666D01*
X365516438Y-49783666D02*
X365611676Y-49878904D01*
X365611676Y-49878904D02*
X365706914Y-49926523D01*
X365706914Y-49926523D02*
X365897390Y-49974142D01*
X365897390Y-49974142D02*
X366040247Y-49974142D01*
X366040247Y-49974142D02*
X366230723Y-49926523D01*
X366230723Y-49926523D02*
X366325961Y-49878904D01*
X366325961Y-49878904D02*
X366421200Y-49783666D01*
X366421200Y-49783666D02*
X366468819Y-49640809D01*
X366468819Y-49640809D02*
X366468819Y-49402714D01*
X366468819Y-50926523D02*
X366468819Y-50355095D01*
X366468819Y-50640809D02*
X365468819Y-50640809D01*
X365468819Y-50640809D02*
X365611676Y-50545571D01*
X365611676Y-50545571D02*
X365706914Y-50450333D01*
X365706914Y-50450333D02*
X365754533Y-50355095D01*
X365802152Y-51783666D02*
X366468819Y-51783666D01*
X365421200Y-51545571D02*
X366135485Y-51307476D01*
X366135485Y-51307476D02*
X366135485Y-51926523D01*
X128882819Y-68440214D02*
X127882819Y-68440214D01*
X127882819Y-68440214D02*
X127882819Y-68678309D01*
X127882819Y-68678309D02*
X127930438Y-68821166D01*
X127930438Y-68821166D02*
X128025676Y-68916404D01*
X128025676Y-68916404D02*
X128120914Y-68964023D01*
X128120914Y-68964023D02*
X128311390Y-69011642D01*
X128311390Y-69011642D02*
X128454247Y-69011642D01*
X128454247Y-69011642D02*
X128644723Y-68964023D01*
X128644723Y-68964023D02*
X128739961Y-68916404D01*
X128739961Y-68916404D02*
X128835200Y-68821166D01*
X128835200Y-68821166D02*
X128882819Y-68678309D01*
X128882819Y-68678309D02*
X128882819Y-68440214D01*
X128882819Y-69964023D02*
X128882819Y-69392595D01*
X128882819Y-69678309D02*
X127882819Y-69678309D01*
X127882819Y-69678309D02*
X128025676Y-69583071D01*
X128025676Y-69583071D02*
X128120914Y-69487833D01*
X128120914Y-69487833D02*
X128168533Y-69392595D01*
X127882819Y-70821166D02*
X127882819Y-70630690D01*
X127882819Y-70630690D02*
X127930438Y-70535452D01*
X127930438Y-70535452D02*
X127978057Y-70487833D01*
X127978057Y-70487833D02*
X128120914Y-70392595D01*
X128120914Y-70392595D02*
X128311390Y-70344976D01*
X128311390Y-70344976D02*
X128692342Y-70344976D01*
X128692342Y-70344976D02*
X128787580Y-70392595D01*
X128787580Y-70392595D02*
X128835200Y-70440214D01*
X128835200Y-70440214D02*
X128882819Y-70535452D01*
X128882819Y-70535452D02*
X128882819Y-70725928D01*
X128882819Y-70725928D02*
X128835200Y-70821166D01*
X128835200Y-70821166D02*
X128787580Y-70868785D01*
X128787580Y-70868785D02*
X128692342Y-70916404D01*
X128692342Y-70916404D02*
X128454247Y-70916404D01*
X128454247Y-70916404D02*
X128359009Y-70868785D01*
X128359009Y-70868785D02*
X128311390Y-70821166D01*
X128311390Y-70821166D02*
X128263771Y-70725928D01*
X128263771Y-70725928D02*
X128263771Y-70535452D01*
X128263771Y-70535452D02*
X128311390Y-70440214D01*
X128311390Y-70440214D02*
X128359009Y-70392595D01*
X128359009Y-70392595D02*
X128454247Y-70344976D01*
X133962819Y-87502714D02*
X132962819Y-87502714D01*
X132962819Y-87502714D02*
X132962819Y-87740809D01*
X132962819Y-87740809D02*
X133010438Y-87883666D01*
X133010438Y-87883666D02*
X133105676Y-87978904D01*
X133105676Y-87978904D02*
X133200914Y-88026523D01*
X133200914Y-88026523D02*
X133391390Y-88074142D01*
X133391390Y-88074142D02*
X133534247Y-88074142D01*
X133534247Y-88074142D02*
X133724723Y-88026523D01*
X133724723Y-88026523D02*
X133819961Y-87978904D01*
X133819961Y-87978904D02*
X133915200Y-87883666D01*
X133915200Y-87883666D02*
X133962819Y-87740809D01*
X133962819Y-87740809D02*
X133962819Y-87502714D01*
X132962819Y-88407476D02*
X132962819Y-89026523D01*
X132962819Y-89026523D02*
X133343771Y-88693190D01*
X133343771Y-88693190D02*
X133343771Y-88836047D01*
X133343771Y-88836047D02*
X133391390Y-88931285D01*
X133391390Y-88931285D02*
X133439009Y-88978904D01*
X133439009Y-88978904D02*
X133534247Y-89026523D01*
X133534247Y-89026523D02*
X133772342Y-89026523D01*
X133772342Y-89026523D02*
X133867580Y-88978904D01*
X133867580Y-88978904D02*
X133915200Y-88931285D01*
X133915200Y-88931285D02*
X133962819Y-88836047D01*
X133962819Y-88836047D02*
X133962819Y-88550333D01*
X133962819Y-88550333D02*
X133915200Y-88455095D01*
X133915200Y-88455095D02*
X133867580Y-88407476D01*
X132962819Y-89645571D02*
X132962819Y-89740809D01*
X132962819Y-89740809D02*
X133010438Y-89836047D01*
X133010438Y-89836047D02*
X133058057Y-89883666D01*
X133058057Y-89883666D02*
X133153295Y-89931285D01*
X133153295Y-89931285D02*
X133343771Y-89978904D01*
X133343771Y-89978904D02*
X133581866Y-89978904D01*
X133581866Y-89978904D02*
X133772342Y-89931285D01*
X133772342Y-89931285D02*
X133867580Y-89883666D01*
X133867580Y-89883666D02*
X133915200Y-89836047D01*
X133915200Y-89836047D02*
X133962819Y-89740809D01*
X133962819Y-89740809D02*
X133962819Y-89645571D01*
X133962819Y-89645571D02*
X133915200Y-89550333D01*
X133915200Y-89550333D02*
X133867580Y-89502714D01*
X133867580Y-89502714D02*
X133772342Y-89455095D01*
X133772342Y-89455095D02*
X133581866Y-89407476D01*
X133581866Y-89407476D02*
X133343771Y-89407476D01*
X133343771Y-89407476D02*
X133153295Y-89455095D01*
X133153295Y-89455095D02*
X133058057Y-89502714D01*
X133058057Y-89502714D02*
X133010438Y-89550333D01*
X133010438Y-89550333D02*
X132962819Y-89645571D01*
X252707819Y-49866405D02*
X251707819Y-49866405D01*
X251707819Y-49866405D02*
X251707819Y-50104500D01*
X251707819Y-50104500D02*
X251755438Y-50247357D01*
X251755438Y-50247357D02*
X251850676Y-50342595D01*
X251850676Y-50342595D02*
X251945914Y-50390214D01*
X251945914Y-50390214D02*
X252136390Y-50437833D01*
X252136390Y-50437833D02*
X252279247Y-50437833D01*
X252279247Y-50437833D02*
X252469723Y-50390214D01*
X252469723Y-50390214D02*
X252564961Y-50342595D01*
X252564961Y-50342595D02*
X252660200Y-50247357D01*
X252660200Y-50247357D02*
X252707819Y-50104500D01*
X252707819Y-50104500D02*
X252707819Y-49866405D01*
X252707819Y-50914024D02*
X252707819Y-51104500D01*
X252707819Y-51104500D02*
X252660200Y-51199738D01*
X252660200Y-51199738D02*
X252612580Y-51247357D01*
X252612580Y-51247357D02*
X252469723Y-51342595D01*
X252469723Y-51342595D02*
X252279247Y-51390214D01*
X252279247Y-51390214D02*
X251898295Y-51390214D01*
X251898295Y-51390214D02*
X251803057Y-51342595D01*
X251803057Y-51342595D02*
X251755438Y-51294976D01*
X251755438Y-51294976D02*
X251707819Y-51199738D01*
X251707819Y-51199738D02*
X251707819Y-51009262D01*
X251707819Y-51009262D02*
X251755438Y-50914024D01*
X251755438Y-50914024D02*
X251803057Y-50866405D01*
X251803057Y-50866405D02*
X251898295Y-50818786D01*
X251898295Y-50818786D02*
X252136390Y-50818786D01*
X252136390Y-50818786D02*
X252231628Y-50866405D01*
X252231628Y-50866405D02*
X252279247Y-50914024D01*
X252279247Y-50914024D02*
X252326866Y-51009262D01*
X252326866Y-51009262D02*
X252326866Y-51199738D01*
X252326866Y-51199738D02*
X252279247Y-51294976D01*
X252279247Y-51294976D02*
X252231628Y-51342595D01*
X252231628Y-51342595D02*
X252136390Y-51390214D01*
X366468819Y-87502714D02*
X365468819Y-87502714D01*
X365468819Y-87502714D02*
X365468819Y-87740809D01*
X365468819Y-87740809D02*
X365516438Y-87883666D01*
X365516438Y-87883666D02*
X365611676Y-87978904D01*
X365611676Y-87978904D02*
X365706914Y-88026523D01*
X365706914Y-88026523D02*
X365897390Y-88074142D01*
X365897390Y-88074142D02*
X366040247Y-88074142D01*
X366040247Y-88074142D02*
X366230723Y-88026523D01*
X366230723Y-88026523D02*
X366325961Y-87978904D01*
X366325961Y-87978904D02*
X366421200Y-87883666D01*
X366421200Y-87883666D02*
X366468819Y-87740809D01*
X366468819Y-87740809D02*
X366468819Y-87502714D01*
X365802152Y-88931285D02*
X366468819Y-88931285D01*
X365421200Y-88693190D02*
X366135485Y-88455095D01*
X366135485Y-88455095D02*
X366135485Y-89074142D01*
X366468819Y-89978904D02*
X366468819Y-89407476D01*
X366468819Y-89693190D02*
X365468819Y-89693190D01*
X365468819Y-89693190D02*
X365611676Y-89597952D01*
X365611676Y-89597952D02*
X365706914Y-89502714D01*
X365706914Y-89502714D02*
X365754533Y-89407476D01*
X333987819Y-49390214D02*
X332987819Y-49390214D01*
X332987819Y-49390214D02*
X332987819Y-49628309D01*
X332987819Y-49628309D02*
X333035438Y-49771166D01*
X333035438Y-49771166D02*
X333130676Y-49866404D01*
X333130676Y-49866404D02*
X333225914Y-49914023D01*
X333225914Y-49914023D02*
X333416390Y-49961642D01*
X333416390Y-49961642D02*
X333559247Y-49961642D01*
X333559247Y-49961642D02*
X333749723Y-49914023D01*
X333749723Y-49914023D02*
X333844961Y-49866404D01*
X333844961Y-49866404D02*
X333940200Y-49771166D01*
X333940200Y-49771166D02*
X333987819Y-49628309D01*
X333987819Y-49628309D02*
X333987819Y-49390214D01*
X333987819Y-50914023D02*
X333987819Y-50342595D01*
X333987819Y-50628309D02*
X332987819Y-50628309D01*
X332987819Y-50628309D02*
X333130676Y-50533071D01*
X333130676Y-50533071D02*
X333225914Y-50437833D01*
X333225914Y-50437833D02*
X333273533Y-50342595D01*
X332987819Y-51247357D02*
X332987819Y-51866404D01*
X332987819Y-51866404D02*
X333368771Y-51533071D01*
X333368771Y-51533071D02*
X333368771Y-51675928D01*
X333368771Y-51675928D02*
X333416390Y-51771166D01*
X333416390Y-51771166D02*
X333464009Y-51818785D01*
X333464009Y-51818785D02*
X333559247Y-51866404D01*
X333559247Y-51866404D02*
X333797342Y-51866404D01*
X333797342Y-51866404D02*
X333892580Y-51818785D01*
X333892580Y-51818785D02*
X333940200Y-51771166D01*
X333940200Y-51771166D02*
X333987819Y-51675928D01*
X333987819Y-51675928D02*
X333987819Y-51390214D01*
X333987819Y-51390214D02*
X333940200Y-51294976D01*
X333940200Y-51294976D02*
X333892580Y-51247357D01*
X323192819Y-106540214D02*
X322192819Y-106540214D01*
X322192819Y-106540214D02*
X322192819Y-106778309D01*
X322192819Y-106778309D02*
X322240438Y-106921166D01*
X322240438Y-106921166D02*
X322335676Y-107016404D01*
X322335676Y-107016404D02*
X322430914Y-107064023D01*
X322430914Y-107064023D02*
X322621390Y-107111642D01*
X322621390Y-107111642D02*
X322764247Y-107111642D01*
X322764247Y-107111642D02*
X322954723Y-107064023D01*
X322954723Y-107064023D02*
X323049961Y-107016404D01*
X323049961Y-107016404D02*
X323145200Y-106921166D01*
X323145200Y-106921166D02*
X323192819Y-106778309D01*
X323192819Y-106778309D02*
X323192819Y-106540214D01*
X322192819Y-108016404D02*
X322192819Y-107540214D01*
X322192819Y-107540214D02*
X322669009Y-107492595D01*
X322669009Y-107492595D02*
X322621390Y-107540214D01*
X322621390Y-107540214D02*
X322573771Y-107635452D01*
X322573771Y-107635452D02*
X322573771Y-107873547D01*
X322573771Y-107873547D02*
X322621390Y-107968785D01*
X322621390Y-107968785D02*
X322669009Y-108016404D01*
X322669009Y-108016404D02*
X322764247Y-108064023D01*
X322764247Y-108064023D02*
X323002342Y-108064023D01*
X323002342Y-108064023D02*
X323097580Y-108016404D01*
X323097580Y-108016404D02*
X323145200Y-107968785D01*
X323145200Y-107968785D02*
X323192819Y-107873547D01*
X323192819Y-107873547D02*
X323192819Y-107635452D01*
X323192819Y-107635452D02*
X323145200Y-107540214D01*
X323145200Y-107540214D02*
X323097580Y-107492595D01*
X322288057Y-108444976D02*
X322240438Y-108492595D01*
X322240438Y-108492595D02*
X322192819Y-108587833D01*
X322192819Y-108587833D02*
X322192819Y-108825928D01*
X322192819Y-108825928D02*
X322240438Y-108921166D01*
X322240438Y-108921166D02*
X322288057Y-108968785D01*
X322288057Y-108968785D02*
X322383295Y-109016404D01*
X322383295Y-109016404D02*
X322478533Y-109016404D01*
X322478533Y-109016404D02*
X322621390Y-108968785D01*
X322621390Y-108968785D02*
X323192819Y-108397357D01*
X323192819Y-108397357D02*
X323192819Y-109016404D01*
X205082819Y-68440214D02*
X204082819Y-68440214D01*
X204082819Y-68440214D02*
X204082819Y-68678309D01*
X204082819Y-68678309D02*
X204130438Y-68821166D01*
X204130438Y-68821166D02*
X204225676Y-68916404D01*
X204225676Y-68916404D02*
X204320914Y-68964023D01*
X204320914Y-68964023D02*
X204511390Y-69011642D01*
X204511390Y-69011642D02*
X204654247Y-69011642D01*
X204654247Y-69011642D02*
X204844723Y-68964023D01*
X204844723Y-68964023D02*
X204939961Y-68916404D01*
X204939961Y-68916404D02*
X205035200Y-68821166D01*
X205035200Y-68821166D02*
X205082819Y-68678309D01*
X205082819Y-68678309D02*
X205082819Y-68440214D01*
X204178057Y-69392595D02*
X204130438Y-69440214D01*
X204130438Y-69440214D02*
X204082819Y-69535452D01*
X204082819Y-69535452D02*
X204082819Y-69773547D01*
X204082819Y-69773547D02*
X204130438Y-69868785D01*
X204130438Y-69868785D02*
X204178057Y-69916404D01*
X204178057Y-69916404D02*
X204273295Y-69964023D01*
X204273295Y-69964023D02*
X204368533Y-69964023D01*
X204368533Y-69964023D02*
X204511390Y-69916404D01*
X204511390Y-69916404D02*
X205082819Y-69344976D01*
X205082819Y-69344976D02*
X205082819Y-69964023D01*
X204082819Y-70583071D02*
X204082819Y-70678309D01*
X204082819Y-70678309D02*
X204130438Y-70773547D01*
X204130438Y-70773547D02*
X204178057Y-70821166D01*
X204178057Y-70821166D02*
X204273295Y-70868785D01*
X204273295Y-70868785D02*
X204463771Y-70916404D01*
X204463771Y-70916404D02*
X204701866Y-70916404D01*
X204701866Y-70916404D02*
X204892342Y-70868785D01*
X204892342Y-70868785D02*
X204987580Y-70821166D01*
X204987580Y-70821166D02*
X205035200Y-70773547D01*
X205035200Y-70773547D02*
X205082819Y-70678309D01*
X205082819Y-70678309D02*
X205082819Y-70583071D01*
X205082819Y-70583071D02*
X205035200Y-70487833D01*
X205035200Y-70487833D02*
X204987580Y-70440214D01*
X204987580Y-70440214D02*
X204892342Y-70392595D01*
X204892342Y-70392595D02*
X204701866Y-70344976D01*
X204701866Y-70344976D02*
X204463771Y-70344976D01*
X204463771Y-70344976D02*
X204273295Y-70392595D01*
X204273295Y-70392595D02*
X204178057Y-70440214D01*
X204178057Y-70440214D02*
X204130438Y-70487833D01*
X204130438Y-70487833D02*
X204082819Y-70583071D01*
X225402819Y-125602714D02*
X224402819Y-125602714D01*
X224402819Y-125602714D02*
X224402819Y-125840809D01*
X224402819Y-125840809D02*
X224450438Y-125983666D01*
X224450438Y-125983666D02*
X224545676Y-126078904D01*
X224545676Y-126078904D02*
X224640914Y-126126523D01*
X224640914Y-126126523D02*
X224831390Y-126174142D01*
X224831390Y-126174142D02*
X224974247Y-126174142D01*
X224974247Y-126174142D02*
X225164723Y-126126523D01*
X225164723Y-126126523D02*
X225259961Y-126078904D01*
X225259961Y-126078904D02*
X225355200Y-125983666D01*
X225355200Y-125983666D02*
X225402819Y-125840809D01*
X225402819Y-125840809D02*
X225402819Y-125602714D01*
X224402819Y-127078904D02*
X224402819Y-126602714D01*
X224402819Y-126602714D02*
X224879009Y-126555095D01*
X224879009Y-126555095D02*
X224831390Y-126602714D01*
X224831390Y-126602714D02*
X224783771Y-126697952D01*
X224783771Y-126697952D02*
X224783771Y-126936047D01*
X224783771Y-126936047D02*
X224831390Y-127031285D01*
X224831390Y-127031285D02*
X224879009Y-127078904D01*
X224879009Y-127078904D02*
X224974247Y-127126523D01*
X224974247Y-127126523D02*
X225212342Y-127126523D01*
X225212342Y-127126523D02*
X225307580Y-127078904D01*
X225307580Y-127078904D02*
X225355200Y-127031285D01*
X225355200Y-127031285D02*
X225402819Y-126936047D01*
X225402819Y-126936047D02*
X225402819Y-126697952D01*
X225402819Y-126697952D02*
X225355200Y-126602714D01*
X225355200Y-126602714D02*
X225307580Y-126555095D01*
X224402819Y-127459857D02*
X224402819Y-128126523D01*
X224402819Y-128126523D02*
X225402819Y-127697952D01*
X262232819Y-68440214D02*
X261232819Y-68440214D01*
X261232819Y-68440214D02*
X261232819Y-68678309D01*
X261232819Y-68678309D02*
X261280438Y-68821166D01*
X261280438Y-68821166D02*
X261375676Y-68916404D01*
X261375676Y-68916404D02*
X261470914Y-68964023D01*
X261470914Y-68964023D02*
X261661390Y-69011642D01*
X261661390Y-69011642D02*
X261804247Y-69011642D01*
X261804247Y-69011642D02*
X261994723Y-68964023D01*
X261994723Y-68964023D02*
X262089961Y-68916404D01*
X262089961Y-68916404D02*
X262185200Y-68821166D01*
X262185200Y-68821166D02*
X262232819Y-68678309D01*
X262232819Y-68678309D02*
X262232819Y-68440214D01*
X261328057Y-69392595D02*
X261280438Y-69440214D01*
X261280438Y-69440214D02*
X261232819Y-69535452D01*
X261232819Y-69535452D02*
X261232819Y-69773547D01*
X261232819Y-69773547D02*
X261280438Y-69868785D01*
X261280438Y-69868785D02*
X261328057Y-69916404D01*
X261328057Y-69916404D02*
X261423295Y-69964023D01*
X261423295Y-69964023D02*
X261518533Y-69964023D01*
X261518533Y-69964023D02*
X261661390Y-69916404D01*
X261661390Y-69916404D02*
X262232819Y-69344976D01*
X262232819Y-69344976D02*
X262232819Y-69964023D01*
X261232819Y-70297357D02*
X261232819Y-70916404D01*
X261232819Y-70916404D02*
X261613771Y-70583071D01*
X261613771Y-70583071D02*
X261613771Y-70725928D01*
X261613771Y-70725928D02*
X261661390Y-70821166D01*
X261661390Y-70821166D02*
X261709009Y-70868785D01*
X261709009Y-70868785D02*
X261804247Y-70916404D01*
X261804247Y-70916404D02*
X262042342Y-70916404D01*
X262042342Y-70916404D02*
X262137580Y-70868785D01*
X262137580Y-70868785D02*
X262185200Y-70821166D01*
X262185200Y-70821166D02*
X262232819Y-70725928D01*
X262232819Y-70725928D02*
X262232819Y-70440214D01*
X262232819Y-70440214D02*
X262185200Y-70344976D01*
X262185200Y-70344976D02*
X262137580Y-70297357D01*
X153012819Y-87502714D02*
X152012819Y-87502714D01*
X152012819Y-87502714D02*
X152012819Y-87740809D01*
X152012819Y-87740809D02*
X152060438Y-87883666D01*
X152060438Y-87883666D02*
X152155676Y-87978904D01*
X152155676Y-87978904D02*
X152250914Y-88026523D01*
X152250914Y-88026523D02*
X152441390Y-88074142D01*
X152441390Y-88074142D02*
X152584247Y-88074142D01*
X152584247Y-88074142D02*
X152774723Y-88026523D01*
X152774723Y-88026523D02*
X152869961Y-87978904D01*
X152869961Y-87978904D02*
X152965200Y-87883666D01*
X152965200Y-87883666D02*
X153012819Y-87740809D01*
X153012819Y-87740809D02*
X153012819Y-87502714D01*
X152012819Y-88407476D02*
X152012819Y-89026523D01*
X152012819Y-89026523D02*
X152393771Y-88693190D01*
X152393771Y-88693190D02*
X152393771Y-88836047D01*
X152393771Y-88836047D02*
X152441390Y-88931285D01*
X152441390Y-88931285D02*
X152489009Y-88978904D01*
X152489009Y-88978904D02*
X152584247Y-89026523D01*
X152584247Y-89026523D02*
X152822342Y-89026523D01*
X152822342Y-89026523D02*
X152917580Y-88978904D01*
X152917580Y-88978904D02*
X152965200Y-88931285D01*
X152965200Y-88931285D02*
X153012819Y-88836047D01*
X153012819Y-88836047D02*
X153012819Y-88550333D01*
X153012819Y-88550333D02*
X152965200Y-88455095D01*
X152965200Y-88455095D02*
X152917580Y-88407476D01*
X153012819Y-89978904D02*
X153012819Y-89407476D01*
X153012819Y-89693190D02*
X152012819Y-89693190D01*
X152012819Y-89693190D02*
X152155676Y-89597952D01*
X152155676Y-89597952D02*
X152250914Y-89502714D01*
X152250914Y-89502714D02*
X152298533Y-89407476D01*
X214607819Y-49866405D02*
X213607819Y-49866405D01*
X213607819Y-49866405D02*
X213607819Y-50104500D01*
X213607819Y-50104500D02*
X213655438Y-50247357D01*
X213655438Y-50247357D02*
X213750676Y-50342595D01*
X213750676Y-50342595D02*
X213845914Y-50390214D01*
X213845914Y-50390214D02*
X214036390Y-50437833D01*
X214036390Y-50437833D02*
X214179247Y-50437833D01*
X214179247Y-50437833D02*
X214369723Y-50390214D01*
X214369723Y-50390214D02*
X214464961Y-50342595D01*
X214464961Y-50342595D02*
X214560200Y-50247357D01*
X214560200Y-50247357D02*
X214607819Y-50104500D01*
X214607819Y-50104500D02*
X214607819Y-49866405D01*
X213607819Y-50771167D02*
X213607819Y-51437833D01*
X213607819Y-51437833D02*
X214607819Y-51009262D01*
X219275819Y-106540214D02*
X218275819Y-106540214D01*
X218275819Y-106540214D02*
X218275819Y-106778309D01*
X218275819Y-106778309D02*
X218323438Y-106921166D01*
X218323438Y-106921166D02*
X218418676Y-107016404D01*
X218418676Y-107016404D02*
X218513914Y-107064023D01*
X218513914Y-107064023D02*
X218704390Y-107111642D01*
X218704390Y-107111642D02*
X218847247Y-107111642D01*
X218847247Y-107111642D02*
X219037723Y-107064023D01*
X219037723Y-107064023D02*
X219132961Y-107016404D01*
X219132961Y-107016404D02*
X219228200Y-106921166D01*
X219228200Y-106921166D02*
X219275819Y-106778309D01*
X219275819Y-106778309D02*
X219275819Y-106540214D01*
X218609152Y-107968785D02*
X219275819Y-107968785D01*
X218228200Y-107730690D02*
X218942485Y-107492595D01*
X218942485Y-107492595D02*
X218942485Y-108111642D01*
X218275819Y-108397357D02*
X218275819Y-109064023D01*
X218275819Y-109064023D02*
X219275819Y-108635452D01*
X118818819Y-106552714D02*
X117818819Y-106552714D01*
X117818819Y-106552714D02*
X117818819Y-106790809D01*
X117818819Y-106790809D02*
X117866438Y-106933666D01*
X117866438Y-106933666D02*
X117961676Y-107028904D01*
X117961676Y-107028904D02*
X118056914Y-107076523D01*
X118056914Y-107076523D02*
X118247390Y-107124142D01*
X118247390Y-107124142D02*
X118390247Y-107124142D01*
X118390247Y-107124142D02*
X118580723Y-107076523D01*
X118580723Y-107076523D02*
X118675961Y-107028904D01*
X118675961Y-107028904D02*
X118771200Y-106933666D01*
X118771200Y-106933666D02*
X118818819Y-106790809D01*
X118818819Y-106790809D02*
X118818819Y-106552714D01*
X118152152Y-107981285D02*
X118818819Y-107981285D01*
X117771200Y-107743190D02*
X118485485Y-107505095D01*
X118485485Y-107505095D02*
X118485485Y-108124142D01*
X117914057Y-108457476D02*
X117866438Y-108505095D01*
X117866438Y-108505095D02*
X117818819Y-108600333D01*
X117818819Y-108600333D02*
X117818819Y-108838428D01*
X117818819Y-108838428D02*
X117866438Y-108933666D01*
X117866438Y-108933666D02*
X117914057Y-108981285D01*
X117914057Y-108981285D02*
X118009295Y-109028904D01*
X118009295Y-109028904D02*
X118104533Y-109028904D01*
X118104533Y-109028904D02*
X118247390Y-108981285D01*
X118247390Y-108981285D02*
X118818819Y-108409857D01*
X118818819Y-108409857D02*
X118818819Y-109028904D01*
X366372819Y-106552714D02*
X365372819Y-106552714D01*
X365372819Y-106552714D02*
X365372819Y-106790809D01*
X365372819Y-106790809D02*
X365420438Y-106933666D01*
X365420438Y-106933666D02*
X365515676Y-107028904D01*
X365515676Y-107028904D02*
X365610914Y-107076523D01*
X365610914Y-107076523D02*
X365801390Y-107124142D01*
X365801390Y-107124142D02*
X365944247Y-107124142D01*
X365944247Y-107124142D02*
X366134723Y-107076523D01*
X366134723Y-107076523D02*
X366229961Y-107028904D01*
X366229961Y-107028904D02*
X366325200Y-106933666D01*
X366325200Y-106933666D02*
X366372819Y-106790809D01*
X366372819Y-106790809D02*
X366372819Y-106552714D01*
X365372819Y-108028904D02*
X365372819Y-107552714D01*
X365372819Y-107552714D02*
X365849009Y-107505095D01*
X365849009Y-107505095D02*
X365801390Y-107552714D01*
X365801390Y-107552714D02*
X365753771Y-107647952D01*
X365753771Y-107647952D02*
X365753771Y-107886047D01*
X365753771Y-107886047D02*
X365801390Y-107981285D01*
X365801390Y-107981285D02*
X365849009Y-108028904D01*
X365849009Y-108028904D02*
X365944247Y-108076523D01*
X365944247Y-108076523D02*
X366182342Y-108076523D01*
X366182342Y-108076523D02*
X366277580Y-108028904D01*
X366277580Y-108028904D02*
X366325200Y-107981285D01*
X366325200Y-107981285D02*
X366372819Y-107886047D01*
X366372819Y-107886047D02*
X366372819Y-107647952D01*
X366372819Y-107647952D02*
X366325200Y-107552714D01*
X366325200Y-107552714D02*
X366277580Y-107505095D01*
X365372819Y-108409857D02*
X365372819Y-109028904D01*
X365372819Y-109028904D02*
X365753771Y-108695571D01*
X365753771Y-108695571D02*
X365753771Y-108838428D01*
X365753771Y-108838428D02*
X365801390Y-108933666D01*
X365801390Y-108933666D02*
X365849009Y-108981285D01*
X365849009Y-108981285D02*
X365944247Y-109028904D01*
X365944247Y-109028904D02*
X366182342Y-109028904D01*
X366182342Y-109028904D02*
X366277580Y-108981285D01*
X366277580Y-108981285D02*
X366325200Y-108933666D01*
X366325200Y-108933666D02*
X366372819Y-108838428D01*
X366372819Y-108838428D02*
X366372819Y-108552714D01*
X366372819Y-108552714D02*
X366325200Y-108457476D01*
X366325200Y-108457476D02*
X366277580Y-108409857D01*
X295887819Y-125615214D02*
X294887819Y-125615214D01*
X294887819Y-125615214D02*
X294887819Y-125853309D01*
X294887819Y-125853309D02*
X294935438Y-125996166D01*
X294935438Y-125996166D02*
X295030676Y-126091404D01*
X295030676Y-126091404D02*
X295125914Y-126139023D01*
X295125914Y-126139023D02*
X295316390Y-126186642D01*
X295316390Y-126186642D02*
X295459247Y-126186642D01*
X295459247Y-126186642D02*
X295649723Y-126139023D01*
X295649723Y-126139023D02*
X295744961Y-126091404D01*
X295744961Y-126091404D02*
X295840200Y-125996166D01*
X295840200Y-125996166D02*
X295887819Y-125853309D01*
X295887819Y-125853309D02*
X295887819Y-125615214D01*
X294887819Y-127091404D02*
X294887819Y-126615214D01*
X294887819Y-126615214D02*
X295364009Y-126567595D01*
X295364009Y-126567595D02*
X295316390Y-126615214D01*
X295316390Y-126615214D02*
X295268771Y-126710452D01*
X295268771Y-126710452D02*
X295268771Y-126948547D01*
X295268771Y-126948547D02*
X295316390Y-127043785D01*
X295316390Y-127043785D02*
X295364009Y-127091404D01*
X295364009Y-127091404D02*
X295459247Y-127139023D01*
X295459247Y-127139023D02*
X295697342Y-127139023D01*
X295697342Y-127139023D02*
X295792580Y-127091404D01*
X295792580Y-127091404D02*
X295840200Y-127043785D01*
X295840200Y-127043785D02*
X295887819Y-126948547D01*
X295887819Y-126948547D02*
X295887819Y-126710452D01*
X295887819Y-126710452D02*
X295840200Y-126615214D01*
X295840200Y-126615214D02*
X295792580Y-126567595D01*
X295316390Y-127710452D02*
X295268771Y-127615214D01*
X295268771Y-127615214D02*
X295221152Y-127567595D01*
X295221152Y-127567595D02*
X295125914Y-127519976D01*
X295125914Y-127519976D02*
X295078295Y-127519976D01*
X295078295Y-127519976D02*
X294983057Y-127567595D01*
X294983057Y-127567595D02*
X294935438Y-127615214D01*
X294935438Y-127615214D02*
X294887819Y-127710452D01*
X294887819Y-127710452D02*
X294887819Y-127900928D01*
X294887819Y-127900928D02*
X294935438Y-127996166D01*
X294935438Y-127996166D02*
X294983057Y-128043785D01*
X294983057Y-128043785D02*
X295078295Y-128091404D01*
X295078295Y-128091404D02*
X295125914Y-128091404D01*
X295125914Y-128091404D02*
X295221152Y-128043785D01*
X295221152Y-128043785D02*
X295268771Y-127996166D01*
X295268771Y-127996166D02*
X295316390Y-127900928D01*
X295316390Y-127900928D02*
X295316390Y-127710452D01*
X295316390Y-127710452D02*
X295364009Y-127615214D01*
X295364009Y-127615214D02*
X295411628Y-127567595D01*
X295411628Y-127567595D02*
X295506866Y-127519976D01*
X295506866Y-127519976D02*
X295697342Y-127519976D01*
X295697342Y-127519976D02*
X295792580Y-127567595D01*
X295792580Y-127567595D02*
X295840200Y-127615214D01*
X295840200Y-127615214D02*
X295887819Y-127710452D01*
X295887819Y-127710452D02*
X295887819Y-127900928D01*
X295887819Y-127900928D02*
X295840200Y-127996166D01*
X295840200Y-127996166D02*
X295792580Y-128043785D01*
X295792580Y-128043785D02*
X295697342Y-128091404D01*
X295697342Y-128091404D02*
X295506866Y-128091404D01*
X295506866Y-128091404D02*
X295411628Y-128043785D01*
X295411628Y-128043785D02*
X295364009Y-127996166D01*
X295364009Y-127996166D02*
X295316390Y-127900928D01*
X243182819Y-68440214D02*
X242182819Y-68440214D01*
X242182819Y-68440214D02*
X242182819Y-68678309D01*
X242182819Y-68678309D02*
X242230438Y-68821166D01*
X242230438Y-68821166D02*
X242325676Y-68916404D01*
X242325676Y-68916404D02*
X242420914Y-68964023D01*
X242420914Y-68964023D02*
X242611390Y-69011642D01*
X242611390Y-69011642D02*
X242754247Y-69011642D01*
X242754247Y-69011642D02*
X242944723Y-68964023D01*
X242944723Y-68964023D02*
X243039961Y-68916404D01*
X243039961Y-68916404D02*
X243135200Y-68821166D01*
X243135200Y-68821166D02*
X243182819Y-68678309D01*
X243182819Y-68678309D02*
X243182819Y-68440214D01*
X242278057Y-69392595D02*
X242230438Y-69440214D01*
X242230438Y-69440214D02*
X242182819Y-69535452D01*
X242182819Y-69535452D02*
X242182819Y-69773547D01*
X242182819Y-69773547D02*
X242230438Y-69868785D01*
X242230438Y-69868785D02*
X242278057Y-69916404D01*
X242278057Y-69916404D02*
X242373295Y-69964023D01*
X242373295Y-69964023D02*
X242468533Y-69964023D01*
X242468533Y-69964023D02*
X242611390Y-69916404D01*
X242611390Y-69916404D02*
X243182819Y-69344976D01*
X243182819Y-69344976D02*
X243182819Y-69964023D01*
X242278057Y-70344976D02*
X242230438Y-70392595D01*
X242230438Y-70392595D02*
X242182819Y-70487833D01*
X242182819Y-70487833D02*
X242182819Y-70725928D01*
X242182819Y-70725928D02*
X242230438Y-70821166D01*
X242230438Y-70821166D02*
X242278057Y-70868785D01*
X242278057Y-70868785D02*
X242373295Y-70916404D01*
X242373295Y-70916404D02*
X242468533Y-70916404D01*
X242468533Y-70916404D02*
X242611390Y-70868785D01*
X242611390Y-70868785D02*
X243182819Y-70297357D01*
X243182819Y-70297357D02*
X243182819Y-70916404D01*
X119357819Y-49866405D02*
X118357819Y-49866405D01*
X118357819Y-49866405D02*
X118357819Y-50104500D01*
X118357819Y-50104500D02*
X118405438Y-50247357D01*
X118405438Y-50247357D02*
X118500676Y-50342595D01*
X118500676Y-50342595D02*
X118595914Y-50390214D01*
X118595914Y-50390214D02*
X118786390Y-50437833D01*
X118786390Y-50437833D02*
X118929247Y-50437833D01*
X118929247Y-50437833D02*
X119119723Y-50390214D01*
X119119723Y-50390214D02*
X119214961Y-50342595D01*
X119214961Y-50342595D02*
X119310200Y-50247357D01*
X119310200Y-50247357D02*
X119357819Y-50104500D01*
X119357819Y-50104500D02*
X119357819Y-49866405D01*
X118453057Y-50818786D02*
X118405438Y-50866405D01*
X118405438Y-50866405D02*
X118357819Y-50961643D01*
X118357819Y-50961643D02*
X118357819Y-51199738D01*
X118357819Y-51199738D02*
X118405438Y-51294976D01*
X118405438Y-51294976D02*
X118453057Y-51342595D01*
X118453057Y-51342595D02*
X118548295Y-51390214D01*
X118548295Y-51390214D02*
X118643533Y-51390214D01*
X118643533Y-51390214D02*
X118786390Y-51342595D01*
X118786390Y-51342595D02*
X119357819Y-50771167D01*
X119357819Y-50771167D02*
X119357819Y-51390214D01*
X200225819Y-106540214D02*
X199225819Y-106540214D01*
X199225819Y-106540214D02*
X199225819Y-106778309D01*
X199225819Y-106778309D02*
X199273438Y-106921166D01*
X199273438Y-106921166D02*
X199368676Y-107016404D01*
X199368676Y-107016404D02*
X199463914Y-107064023D01*
X199463914Y-107064023D02*
X199654390Y-107111642D01*
X199654390Y-107111642D02*
X199797247Y-107111642D01*
X199797247Y-107111642D02*
X199987723Y-107064023D01*
X199987723Y-107064023D02*
X200082961Y-107016404D01*
X200082961Y-107016404D02*
X200178200Y-106921166D01*
X200178200Y-106921166D02*
X200225819Y-106778309D01*
X200225819Y-106778309D02*
X200225819Y-106540214D01*
X199559152Y-107968785D02*
X200225819Y-107968785D01*
X199178200Y-107730690D02*
X199892485Y-107492595D01*
X199892485Y-107492595D02*
X199892485Y-108111642D01*
X199225819Y-108921166D02*
X199225819Y-108730690D01*
X199225819Y-108730690D02*
X199273438Y-108635452D01*
X199273438Y-108635452D02*
X199321057Y-108587833D01*
X199321057Y-108587833D02*
X199463914Y-108492595D01*
X199463914Y-108492595D02*
X199654390Y-108444976D01*
X199654390Y-108444976D02*
X200035342Y-108444976D01*
X200035342Y-108444976D02*
X200130580Y-108492595D01*
X200130580Y-108492595D02*
X200178200Y-108540214D01*
X200178200Y-108540214D02*
X200225819Y-108635452D01*
X200225819Y-108635452D02*
X200225819Y-108825928D01*
X200225819Y-108825928D02*
X200178200Y-108921166D01*
X200178200Y-108921166D02*
X200130580Y-108968785D01*
X200130580Y-108968785D02*
X200035342Y-109016404D01*
X200035342Y-109016404D02*
X199797247Y-109016404D01*
X199797247Y-109016404D02*
X199702009Y-108968785D01*
X199702009Y-108968785D02*
X199654390Y-108921166D01*
X199654390Y-108921166D02*
X199606771Y-108825928D01*
X199606771Y-108825928D02*
X199606771Y-108635452D01*
X199606771Y-108635452D02*
X199654390Y-108540214D01*
X199654390Y-108540214D02*
X199702009Y-108492595D01*
X199702009Y-108492595D02*
X199797247Y-108444976D01*
X305412819Y-87502714D02*
X304412819Y-87502714D01*
X304412819Y-87502714D02*
X304412819Y-87740809D01*
X304412819Y-87740809D02*
X304460438Y-87883666D01*
X304460438Y-87883666D02*
X304555676Y-87978904D01*
X304555676Y-87978904D02*
X304650914Y-88026523D01*
X304650914Y-88026523D02*
X304841390Y-88074142D01*
X304841390Y-88074142D02*
X304984247Y-88074142D01*
X304984247Y-88074142D02*
X305174723Y-88026523D01*
X305174723Y-88026523D02*
X305269961Y-87978904D01*
X305269961Y-87978904D02*
X305365200Y-87883666D01*
X305365200Y-87883666D02*
X305412819Y-87740809D01*
X305412819Y-87740809D02*
X305412819Y-87502714D01*
X304412819Y-88407476D02*
X304412819Y-89026523D01*
X304412819Y-89026523D02*
X304793771Y-88693190D01*
X304793771Y-88693190D02*
X304793771Y-88836047D01*
X304793771Y-88836047D02*
X304841390Y-88931285D01*
X304841390Y-88931285D02*
X304889009Y-88978904D01*
X304889009Y-88978904D02*
X304984247Y-89026523D01*
X304984247Y-89026523D02*
X305222342Y-89026523D01*
X305222342Y-89026523D02*
X305317580Y-88978904D01*
X305317580Y-88978904D02*
X305365200Y-88931285D01*
X305365200Y-88931285D02*
X305412819Y-88836047D01*
X305412819Y-88836047D02*
X305412819Y-88550333D01*
X305412819Y-88550333D02*
X305365200Y-88455095D01*
X305365200Y-88455095D02*
X305317580Y-88407476D01*
X305412819Y-89502714D02*
X305412819Y-89693190D01*
X305412819Y-89693190D02*
X305365200Y-89788428D01*
X305365200Y-89788428D02*
X305317580Y-89836047D01*
X305317580Y-89836047D02*
X305174723Y-89931285D01*
X305174723Y-89931285D02*
X304984247Y-89978904D01*
X304984247Y-89978904D02*
X304603295Y-89978904D01*
X304603295Y-89978904D02*
X304508057Y-89931285D01*
X304508057Y-89931285D02*
X304460438Y-89883666D01*
X304460438Y-89883666D02*
X304412819Y-89788428D01*
X304412819Y-89788428D02*
X304412819Y-89597952D01*
X304412819Y-89597952D02*
X304460438Y-89502714D01*
X304460438Y-89502714D02*
X304508057Y-89455095D01*
X304508057Y-89455095D02*
X304603295Y-89407476D01*
X304603295Y-89407476D02*
X304841390Y-89407476D01*
X304841390Y-89407476D02*
X304936628Y-89455095D01*
X304936628Y-89455095D02*
X304984247Y-89502714D01*
X304984247Y-89502714D02*
X305031866Y-89597952D01*
X305031866Y-89597952D02*
X305031866Y-89788428D01*
X305031866Y-89788428D02*
X304984247Y-89883666D01*
X304984247Y-89883666D02*
X304936628Y-89931285D01*
X304936628Y-89931285D02*
X304841390Y-89978904D01*
X153012819Y-124967714D02*
X152012819Y-124967714D01*
X152012819Y-124967714D02*
X152012819Y-125205809D01*
X152012819Y-125205809D02*
X152060438Y-125348666D01*
X152060438Y-125348666D02*
X152155676Y-125443904D01*
X152155676Y-125443904D02*
X152250914Y-125491523D01*
X152250914Y-125491523D02*
X152441390Y-125539142D01*
X152441390Y-125539142D02*
X152584247Y-125539142D01*
X152584247Y-125539142D02*
X152774723Y-125491523D01*
X152774723Y-125491523D02*
X152869961Y-125443904D01*
X152869961Y-125443904D02*
X152965200Y-125348666D01*
X152965200Y-125348666D02*
X153012819Y-125205809D01*
X153012819Y-125205809D02*
X153012819Y-124967714D01*
X152012819Y-126443904D02*
X152012819Y-125967714D01*
X152012819Y-125967714D02*
X152489009Y-125920095D01*
X152489009Y-125920095D02*
X152441390Y-125967714D01*
X152441390Y-125967714D02*
X152393771Y-126062952D01*
X152393771Y-126062952D02*
X152393771Y-126301047D01*
X152393771Y-126301047D02*
X152441390Y-126396285D01*
X152441390Y-126396285D02*
X152489009Y-126443904D01*
X152489009Y-126443904D02*
X152584247Y-126491523D01*
X152584247Y-126491523D02*
X152822342Y-126491523D01*
X152822342Y-126491523D02*
X152917580Y-126443904D01*
X152917580Y-126443904D02*
X152965200Y-126396285D01*
X152965200Y-126396285D02*
X153012819Y-126301047D01*
X153012819Y-126301047D02*
X153012819Y-126062952D01*
X153012819Y-126062952D02*
X152965200Y-125967714D01*
X152965200Y-125967714D02*
X152917580Y-125920095D01*
X152012819Y-127348666D02*
X152012819Y-127158190D01*
X152012819Y-127158190D02*
X152060438Y-127062952D01*
X152060438Y-127062952D02*
X152108057Y-127015333D01*
X152108057Y-127015333D02*
X152250914Y-126920095D01*
X152250914Y-126920095D02*
X152441390Y-126872476D01*
X152441390Y-126872476D02*
X152822342Y-126872476D01*
X152822342Y-126872476D02*
X152917580Y-126920095D01*
X152917580Y-126920095D02*
X152965200Y-126967714D01*
X152965200Y-126967714D02*
X153012819Y-127062952D01*
X153012819Y-127062952D02*
X153012819Y-127253428D01*
X153012819Y-127253428D02*
X152965200Y-127348666D01*
X152965200Y-127348666D02*
X152917580Y-127396285D01*
X152917580Y-127396285D02*
X152822342Y-127443904D01*
X152822342Y-127443904D02*
X152584247Y-127443904D01*
X152584247Y-127443904D02*
X152489009Y-127396285D01*
X152489009Y-127396285D02*
X152441390Y-127348666D01*
X152441390Y-127348666D02*
X152393771Y-127253428D01*
X152393771Y-127253428D02*
X152393771Y-127062952D01*
X152393771Y-127062952D02*
X152441390Y-126967714D01*
X152441390Y-126967714D02*
X152489009Y-126920095D01*
X152489009Y-126920095D02*
X152584247Y-126872476D01*
X191112819Y-87502714D02*
X190112819Y-87502714D01*
X190112819Y-87502714D02*
X190112819Y-87740809D01*
X190112819Y-87740809D02*
X190160438Y-87883666D01*
X190160438Y-87883666D02*
X190255676Y-87978904D01*
X190255676Y-87978904D02*
X190350914Y-88026523D01*
X190350914Y-88026523D02*
X190541390Y-88074142D01*
X190541390Y-88074142D02*
X190684247Y-88074142D01*
X190684247Y-88074142D02*
X190874723Y-88026523D01*
X190874723Y-88026523D02*
X190969961Y-87978904D01*
X190969961Y-87978904D02*
X191065200Y-87883666D01*
X191065200Y-87883666D02*
X191112819Y-87740809D01*
X191112819Y-87740809D02*
X191112819Y-87502714D01*
X190112819Y-88407476D02*
X190112819Y-89026523D01*
X190112819Y-89026523D02*
X190493771Y-88693190D01*
X190493771Y-88693190D02*
X190493771Y-88836047D01*
X190493771Y-88836047D02*
X190541390Y-88931285D01*
X190541390Y-88931285D02*
X190589009Y-88978904D01*
X190589009Y-88978904D02*
X190684247Y-89026523D01*
X190684247Y-89026523D02*
X190922342Y-89026523D01*
X190922342Y-89026523D02*
X191017580Y-88978904D01*
X191017580Y-88978904D02*
X191065200Y-88931285D01*
X191065200Y-88931285D02*
X191112819Y-88836047D01*
X191112819Y-88836047D02*
X191112819Y-88550333D01*
X191112819Y-88550333D02*
X191065200Y-88455095D01*
X191065200Y-88455095D02*
X191017580Y-88407476D01*
X190112819Y-89359857D02*
X190112819Y-89978904D01*
X190112819Y-89978904D02*
X190493771Y-89645571D01*
X190493771Y-89645571D02*
X190493771Y-89788428D01*
X190493771Y-89788428D02*
X190541390Y-89883666D01*
X190541390Y-89883666D02*
X190589009Y-89931285D01*
X190589009Y-89931285D02*
X190684247Y-89978904D01*
X190684247Y-89978904D02*
X190922342Y-89978904D01*
X190922342Y-89978904D02*
X191017580Y-89931285D01*
X191017580Y-89931285D02*
X191065200Y-89883666D01*
X191065200Y-89883666D02*
X191112819Y-89788428D01*
X191112819Y-89788428D02*
X191112819Y-89502714D01*
X191112819Y-89502714D02*
X191065200Y-89407476D01*
X191065200Y-89407476D02*
X191017580Y-89359857D01*
X110467819Y-87502714D02*
X109467819Y-87502714D01*
X109467819Y-87502714D02*
X109467819Y-87740809D01*
X109467819Y-87740809D02*
X109515438Y-87883666D01*
X109515438Y-87883666D02*
X109610676Y-87978904D01*
X109610676Y-87978904D02*
X109705914Y-88026523D01*
X109705914Y-88026523D02*
X109896390Y-88074142D01*
X109896390Y-88074142D02*
X110039247Y-88074142D01*
X110039247Y-88074142D02*
X110229723Y-88026523D01*
X110229723Y-88026523D02*
X110324961Y-87978904D01*
X110324961Y-87978904D02*
X110420200Y-87883666D01*
X110420200Y-87883666D02*
X110467819Y-87740809D01*
X110467819Y-87740809D02*
X110467819Y-87502714D01*
X109563057Y-88455095D02*
X109515438Y-88502714D01*
X109515438Y-88502714D02*
X109467819Y-88597952D01*
X109467819Y-88597952D02*
X109467819Y-88836047D01*
X109467819Y-88836047D02*
X109515438Y-88931285D01*
X109515438Y-88931285D02*
X109563057Y-88978904D01*
X109563057Y-88978904D02*
X109658295Y-89026523D01*
X109658295Y-89026523D02*
X109753533Y-89026523D01*
X109753533Y-89026523D02*
X109896390Y-88978904D01*
X109896390Y-88978904D02*
X110467819Y-88407476D01*
X110467819Y-88407476D02*
X110467819Y-89026523D01*
X110467819Y-89502714D02*
X110467819Y-89693190D01*
X110467819Y-89693190D02*
X110420200Y-89788428D01*
X110420200Y-89788428D02*
X110372580Y-89836047D01*
X110372580Y-89836047D02*
X110229723Y-89931285D01*
X110229723Y-89931285D02*
X110039247Y-89978904D01*
X110039247Y-89978904D02*
X109658295Y-89978904D01*
X109658295Y-89978904D02*
X109563057Y-89931285D01*
X109563057Y-89931285D02*
X109515438Y-89883666D01*
X109515438Y-89883666D02*
X109467819Y-89788428D01*
X109467819Y-89788428D02*
X109467819Y-89597952D01*
X109467819Y-89597952D02*
X109515438Y-89502714D01*
X109515438Y-89502714D02*
X109563057Y-89455095D01*
X109563057Y-89455095D02*
X109658295Y-89407476D01*
X109658295Y-89407476D02*
X109896390Y-89407476D01*
X109896390Y-89407476D02*
X109991628Y-89455095D01*
X109991628Y-89455095D02*
X110039247Y-89502714D01*
X110039247Y-89502714D02*
X110086866Y-89597952D01*
X110086866Y-89597952D02*
X110086866Y-89788428D01*
X110086866Y-89788428D02*
X110039247Y-89883666D01*
X110039247Y-89883666D02*
X109991628Y-89931285D01*
X109991628Y-89931285D02*
X109896390Y-89978904D01*
X281378819Y-68440214D02*
X280378819Y-68440214D01*
X280378819Y-68440214D02*
X280378819Y-68678309D01*
X280378819Y-68678309D02*
X280426438Y-68821166D01*
X280426438Y-68821166D02*
X280521676Y-68916404D01*
X280521676Y-68916404D02*
X280616914Y-68964023D01*
X280616914Y-68964023D02*
X280807390Y-69011642D01*
X280807390Y-69011642D02*
X280950247Y-69011642D01*
X280950247Y-69011642D02*
X281140723Y-68964023D01*
X281140723Y-68964023D02*
X281235961Y-68916404D01*
X281235961Y-68916404D02*
X281331200Y-68821166D01*
X281331200Y-68821166D02*
X281378819Y-68678309D01*
X281378819Y-68678309D02*
X281378819Y-68440214D01*
X280474057Y-69392595D02*
X280426438Y-69440214D01*
X280426438Y-69440214D02*
X280378819Y-69535452D01*
X280378819Y-69535452D02*
X280378819Y-69773547D01*
X280378819Y-69773547D02*
X280426438Y-69868785D01*
X280426438Y-69868785D02*
X280474057Y-69916404D01*
X280474057Y-69916404D02*
X280569295Y-69964023D01*
X280569295Y-69964023D02*
X280664533Y-69964023D01*
X280664533Y-69964023D02*
X280807390Y-69916404D01*
X280807390Y-69916404D02*
X281378819Y-69344976D01*
X281378819Y-69344976D02*
X281378819Y-69964023D01*
X280712152Y-70821166D02*
X281378819Y-70821166D01*
X280331200Y-70583071D02*
X281045485Y-70344976D01*
X281045485Y-70344976D02*
X281045485Y-70964023D01*
X238198819Y-106540214D02*
X237198819Y-106540214D01*
X237198819Y-106540214D02*
X237198819Y-106778309D01*
X237198819Y-106778309D02*
X237246438Y-106921166D01*
X237246438Y-106921166D02*
X237341676Y-107016404D01*
X237341676Y-107016404D02*
X237436914Y-107064023D01*
X237436914Y-107064023D02*
X237627390Y-107111642D01*
X237627390Y-107111642D02*
X237770247Y-107111642D01*
X237770247Y-107111642D02*
X237960723Y-107064023D01*
X237960723Y-107064023D02*
X238055961Y-107016404D01*
X238055961Y-107016404D02*
X238151200Y-106921166D01*
X238151200Y-106921166D02*
X238198819Y-106778309D01*
X238198819Y-106778309D02*
X238198819Y-106540214D01*
X237532152Y-107968785D02*
X238198819Y-107968785D01*
X237151200Y-107730690D02*
X237865485Y-107492595D01*
X237865485Y-107492595D02*
X237865485Y-108111642D01*
X237627390Y-108635452D02*
X237579771Y-108540214D01*
X237579771Y-108540214D02*
X237532152Y-108492595D01*
X237532152Y-108492595D02*
X237436914Y-108444976D01*
X237436914Y-108444976D02*
X237389295Y-108444976D01*
X237389295Y-108444976D02*
X237294057Y-108492595D01*
X237294057Y-108492595D02*
X237246438Y-108540214D01*
X237246438Y-108540214D02*
X237198819Y-108635452D01*
X237198819Y-108635452D02*
X237198819Y-108825928D01*
X237198819Y-108825928D02*
X237246438Y-108921166D01*
X237246438Y-108921166D02*
X237294057Y-108968785D01*
X237294057Y-108968785D02*
X237389295Y-109016404D01*
X237389295Y-109016404D02*
X237436914Y-109016404D01*
X237436914Y-109016404D02*
X237532152Y-108968785D01*
X237532152Y-108968785D02*
X237579771Y-108921166D01*
X237579771Y-108921166D02*
X237627390Y-108825928D01*
X237627390Y-108825928D02*
X237627390Y-108635452D01*
X237627390Y-108635452D02*
X237675009Y-108540214D01*
X237675009Y-108540214D02*
X237722628Y-108492595D01*
X237722628Y-108492595D02*
X237817866Y-108444976D01*
X237817866Y-108444976D02*
X238008342Y-108444976D01*
X238008342Y-108444976D02*
X238103580Y-108492595D01*
X238103580Y-108492595D02*
X238151200Y-108540214D01*
X238151200Y-108540214D02*
X238198819Y-108635452D01*
X238198819Y-108635452D02*
X238198819Y-108825928D01*
X238198819Y-108825928D02*
X238151200Y-108921166D01*
X238151200Y-108921166D02*
X238103580Y-108968785D01*
X238103580Y-108968785D02*
X238008342Y-109016404D01*
X238008342Y-109016404D02*
X237817866Y-109016404D01*
X237817866Y-109016404D02*
X237722628Y-108968785D01*
X237722628Y-108968785D02*
X237675009Y-108921166D01*
X237675009Y-108921166D02*
X237627390Y-108825928D01*
X142948819Y-106540214D02*
X141948819Y-106540214D01*
X141948819Y-106540214D02*
X141948819Y-106778309D01*
X141948819Y-106778309D02*
X141996438Y-106921166D01*
X141996438Y-106921166D02*
X142091676Y-107016404D01*
X142091676Y-107016404D02*
X142186914Y-107064023D01*
X142186914Y-107064023D02*
X142377390Y-107111642D01*
X142377390Y-107111642D02*
X142520247Y-107111642D01*
X142520247Y-107111642D02*
X142710723Y-107064023D01*
X142710723Y-107064023D02*
X142805961Y-107016404D01*
X142805961Y-107016404D02*
X142901200Y-106921166D01*
X142901200Y-106921166D02*
X142948819Y-106778309D01*
X142948819Y-106778309D02*
X142948819Y-106540214D01*
X142282152Y-107968785D02*
X142948819Y-107968785D01*
X141901200Y-107730690D02*
X142615485Y-107492595D01*
X142615485Y-107492595D02*
X142615485Y-108111642D01*
X141948819Y-108397357D02*
X141948819Y-109016404D01*
X141948819Y-109016404D02*
X142329771Y-108683071D01*
X142329771Y-108683071D02*
X142329771Y-108825928D01*
X142329771Y-108825928D02*
X142377390Y-108921166D01*
X142377390Y-108921166D02*
X142425009Y-108968785D01*
X142425009Y-108968785D02*
X142520247Y-109016404D01*
X142520247Y-109016404D02*
X142758342Y-109016404D01*
X142758342Y-109016404D02*
X142853580Y-108968785D01*
X142853580Y-108968785D02*
X142901200Y-108921166D01*
X142901200Y-108921166D02*
X142948819Y-108825928D01*
X142948819Y-108825928D02*
X142948819Y-108540214D01*
X142948819Y-108540214D02*
X142901200Y-108444976D01*
X142901200Y-108444976D02*
X142853580Y-108397357D01*
X210258819Y-87502714D02*
X209258819Y-87502714D01*
X209258819Y-87502714D02*
X209258819Y-87740809D01*
X209258819Y-87740809D02*
X209306438Y-87883666D01*
X209306438Y-87883666D02*
X209401676Y-87978904D01*
X209401676Y-87978904D02*
X209496914Y-88026523D01*
X209496914Y-88026523D02*
X209687390Y-88074142D01*
X209687390Y-88074142D02*
X209830247Y-88074142D01*
X209830247Y-88074142D02*
X210020723Y-88026523D01*
X210020723Y-88026523D02*
X210115961Y-87978904D01*
X210115961Y-87978904D02*
X210211200Y-87883666D01*
X210211200Y-87883666D02*
X210258819Y-87740809D01*
X210258819Y-87740809D02*
X210258819Y-87502714D01*
X209258819Y-88407476D02*
X209258819Y-89026523D01*
X209258819Y-89026523D02*
X209639771Y-88693190D01*
X209639771Y-88693190D02*
X209639771Y-88836047D01*
X209639771Y-88836047D02*
X209687390Y-88931285D01*
X209687390Y-88931285D02*
X209735009Y-88978904D01*
X209735009Y-88978904D02*
X209830247Y-89026523D01*
X209830247Y-89026523D02*
X210068342Y-89026523D01*
X210068342Y-89026523D02*
X210163580Y-88978904D01*
X210163580Y-88978904D02*
X210211200Y-88931285D01*
X210211200Y-88931285D02*
X210258819Y-88836047D01*
X210258819Y-88836047D02*
X210258819Y-88550333D01*
X210258819Y-88550333D02*
X210211200Y-88455095D01*
X210211200Y-88455095D02*
X210163580Y-88407476D01*
X209592152Y-89883666D02*
X210258819Y-89883666D01*
X209211200Y-89645571D02*
X209925485Y-89407476D01*
X209925485Y-89407476D02*
X209925485Y-90026523D01*
X107927819Y-68452714D02*
X106927819Y-68452714D01*
X106927819Y-68452714D02*
X106927819Y-68690809D01*
X106927819Y-68690809D02*
X106975438Y-68833666D01*
X106975438Y-68833666D02*
X107070676Y-68928904D01*
X107070676Y-68928904D02*
X107165914Y-68976523D01*
X107165914Y-68976523D02*
X107356390Y-69024142D01*
X107356390Y-69024142D02*
X107499247Y-69024142D01*
X107499247Y-69024142D02*
X107689723Y-68976523D01*
X107689723Y-68976523D02*
X107784961Y-68928904D01*
X107784961Y-68928904D02*
X107880200Y-68833666D01*
X107880200Y-68833666D02*
X107927819Y-68690809D01*
X107927819Y-68690809D02*
X107927819Y-68452714D01*
X107927819Y-69976523D02*
X107927819Y-69405095D01*
X107927819Y-69690809D02*
X106927819Y-69690809D01*
X106927819Y-69690809D02*
X107070676Y-69595571D01*
X107070676Y-69595571D02*
X107165914Y-69500333D01*
X107165914Y-69500333D02*
X107213533Y-69405095D01*
X106927819Y-70881285D02*
X106927819Y-70405095D01*
X106927819Y-70405095D02*
X107404009Y-70357476D01*
X107404009Y-70357476D02*
X107356390Y-70405095D01*
X107356390Y-70405095D02*
X107308771Y-70500333D01*
X107308771Y-70500333D02*
X107308771Y-70738428D01*
X107308771Y-70738428D02*
X107356390Y-70833666D01*
X107356390Y-70833666D02*
X107404009Y-70881285D01*
X107404009Y-70881285D02*
X107499247Y-70928904D01*
X107499247Y-70928904D02*
X107737342Y-70928904D01*
X107737342Y-70928904D02*
X107832580Y-70881285D01*
X107832580Y-70881285D02*
X107880200Y-70833666D01*
X107880200Y-70833666D02*
X107927819Y-70738428D01*
X107927819Y-70738428D02*
X107927819Y-70500333D01*
X107927819Y-70500333D02*
X107880200Y-70405095D01*
X107880200Y-70405095D02*
X107832580Y-70357476D01*
X147932819Y-68440214D02*
X146932819Y-68440214D01*
X146932819Y-68440214D02*
X146932819Y-68678309D01*
X146932819Y-68678309D02*
X146980438Y-68821166D01*
X146980438Y-68821166D02*
X147075676Y-68916404D01*
X147075676Y-68916404D02*
X147170914Y-68964023D01*
X147170914Y-68964023D02*
X147361390Y-69011642D01*
X147361390Y-69011642D02*
X147504247Y-69011642D01*
X147504247Y-69011642D02*
X147694723Y-68964023D01*
X147694723Y-68964023D02*
X147789961Y-68916404D01*
X147789961Y-68916404D02*
X147885200Y-68821166D01*
X147885200Y-68821166D02*
X147932819Y-68678309D01*
X147932819Y-68678309D02*
X147932819Y-68440214D01*
X147932819Y-69964023D02*
X147932819Y-69392595D01*
X147932819Y-69678309D02*
X146932819Y-69678309D01*
X146932819Y-69678309D02*
X147075676Y-69583071D01*
X147075676Y-69583071D02*
X147170914Y-69487833D01*
X147170914Y-69487833D02*
X147218533Y-69392595D01*
X146932819Y-70297357D02*
X146932819Y-70964023D01*
X146932819Y-70964023D02*
X147932819Y-70535452D01*
X100307819Y-49866405D02*
X99307819Y-49866405D01*
X99307819Y-49866405D02*
X99307819Y-50104500D01*
X99307819Y-50104500D02*
X99355438Y-50247357D01*
X99355438Y-50247357D02*
X99450676Y-50342595D01*
X99450676Y-50342595D02*
X99545914Y-50390214D01*
X99545914Y-50390214D02*
X99736390Y-50437833D01*
X99736390Y-50437833D02*
X99879247Y-50437833D01*
X99879247Y-50437833D02*
X100069723Y-50390214D01*
X100069723Y-50390214D02*
X100164961Y-50342595D01*
X100164961Y-50342595D02*
X100260200Y-50247357D01*
X100260200Y-50247357D02*
X100307819Y-50104500D01*
X100307819Y-50104500D02*
X100307819Y-49866405D01*
X100307819Y-51390214D02*
X100307819Y-50818786D01*
X100307819Y-51104500D02*
X99307819Y-51104500D01*
X99307819Y-51104500D02*
X99450676Y-51009262D01*
X99450676Y-51009262D02*
X99545914Y-50914024D01*
X99545914Y-50914024D02*
X99593533Y-50818786D01*
X186032819Y-68440214D02*
X185032819Y-68440214D01*
X185032819Y-68440214D02*
X185032819Y-68678309D01*
X185032819Y-68678309D02*
X185080438Y-68821166D01*
X185080438Y-68821166D02*
X185175676Y-68916404D01*
X185175676Y-68916404D02*
X185270914Y-68964023D01*
X185270914Y-68964023D02*
X185461390Y-69011642D01*
X185461390Y-69011642D02*
X185604247Y-69011642D01*
X185604247Y-69011642D02*
X185794723Y-68964023D01*
X185794723Y-68964023D02*
X185889961Y-68916404D01*
X185889961Y-68916404D02*
X185985200Y-68821166D01*
X185985200Y-68821166D02*
X186032819Y-68678309D01*
X186032819Y-68678309D02*
X186032819Y-68440214D01*
X186032819Y-69964023D02*
X186032819Y-69392595D01*
X186032819Y-69678309D02*
X185032819Y-69678309D01*
X185032819Y-69678309D02*
X185175676Y-69583071D01*
X185175676Y-69583071D02*
X185270914Y-69487833D01*
X185270914Y-69487833D02*
X185318533Y-69392595D01*
X186032819Y-70440214D02*
X186032819Y-70630690D01*
X186032819Y-70630690D02*
X185985200Y-70725928D01*
X185985200Y-70725928D02*
X185937580Y-70773547D01*
X185937580Y-70773547D02*
X185794723Y-70868785D01*
X185794723Y-70868785D02*
X185604247Y-70916404D01*
X185604247Y-70916404D02*
X185223295Y-70916404D01*
X185223295Y-70916404D02*
X185128057Y-70868785D01*
X185128057Y-70868785D02*
X185080438Y-70821166D01*
X185080438Y-70821166D02*
X185032819Y-70725928D01*
X185032819Y-70725928D02*
X185032819Y-70535452D01*
X185032819Y-70535452D02*
X185080438Y-70440214D01*
X185080438Y-70440214D02*
X185128057Y-70392595D01*
X185128057Y-70392595D02*
X185223295Y-70344976D01*
X185223295Y-70344976D02*
X185461390Y-70344976D01*
X185461390Y-70344976D02*
X185556628Y-70392595D01*
X185556628Y-70392595D02*
X185604247Y-70440214D01*
X185604247Y-70440214D02*
X185651866Y-70535452D01*
X185651866Y-70535452D02*
X185651866Y-70725928D01*
X185651866Y-70725928D02*
X185604247Y-70821166D01*
X185604247Y-70821166D02*
X185556628Y-70868785D01*
X185556628Y-70868785D02*
X185461390Y-70916404D01*
X343512819Y-125615214D02*
X342512819Y-125615214D01*
X342512819Y-125615214D02*
X342512819Y-125853309D01*
X342512819Y-125853309D02*
X342560438Y-125996166D01*
X342560438Y-125996166D02*
X342655676Y-126091404D01*
X342655676Y-126091404D02*
X342750914Y-126139023D01*
X342750914Y-126139023D02*
X342941390Y-126186642D01*
X342941390Y-126186642D02*
X343084247Y-126186642D01*
X343084247Y-126186642D02*
X343274723Y-126139023D01*
X343274723Y-126139023D02*
X343369961Y-126091404D01*
X343369961Y-126091404D02*
X343465200Y-125996166D01*
X343465200Y-125996166D02*
X343512819Y-125853309D01*
X343512819Y-125853309D02*
X343512819Y-125615214D01*
X342512819Y-127043785D02*
X342512819Y-126853309D01*
X342512819Y-126853309D02*
X342560438Y-126758071D01*
X342560438Y-126758071D02*
X342608057Y-126710452D01*
X342608057Y-126710452D02*
X342750914Y-126615214D01*
X342750914Y-126615214D02*
X342941390Y-126567595D01*
X342941390Y-126567595D02*
X343322342Y-126567595D01*
X343322342Y-126567595D02*
X343417580Y-126615214D01*
X343417580Y-126615214D02*
X343465200Y-126662833D01*
X343465200Y-126662833D02*
X343512819Y-126758071D01*
X343512819Y-126758071D02*
X343512819Y-126948547D01*
X343512819Y-126948547D02*
X343465200Y-127043785D01*
X343465200Y-127043785D02*
X343417580Y-127091404D01*
X343417580Y-127091404D02*
X343322342Y-127139023D01*
X343322342Y-127139023D02*
X343084247Y-127139023D01*
X343084247Y-127139023D02*
X342989009Y-127091404D01*
X342989009Y-127091404D02*
X342941390Y-127043785D01*
X342941390Y-127043785D02*
X342893771Y-126948547D01*
X342893771Y-126948547D02*
X342893771Y-126758071D01*
X342893771Y-126758071D02*
X342941390Y-126662833D01*
X342941390Y-126662833D02*
X342989009Y-126615214D01*
X342989009Y-126615214D02*
X343084247Y-126567595D01*
X342512819Y-127758071D02*
X342512819Y-127853309D01*
X342512819Y-127853309D02*
X342560438Y-127948547D01*
X342560438Y-127948547D02*
X342608057Y-127996166D01*
X342608057Y-127996166D02*
X342703295Y-128043785D01*
X342703295Y-128043785D02*
X342893771Y-128091404D01*
X342893771Y-128091404D02*
X343131866Y-128091404D01*
X343131866Y-128091404D02*
X343322342Y-128043785D01*
X343322342Y-128043785D02*
X343417580Y-127996166D01*
X343417580Y-127996166D02*
X343465200Y-127948547D01*
X343465200Y-127948547D02*
X343512819Y-127853309D01*
X343512819Y-127853309D02*
X343512819Y-127758071D01*
X343512819Y-127758071D02*
X343465200Y-127662833D01*
X343465200Y-127662833D02*
X343417580Y-127615214D01*
X343417580Y-127615214D02*
X343322342Y-127567595D01*
X343322342Y-127567595D02*
X343131866Y-127519976D01*
X343131866Y-127519976D02*
X342893771Y-127519976D01*
X342893771Y-127519976D02*
X342703295Y-127567595D01*
X342703295Y-127567595D02*
X342608057Y-127615214D01*
X342608057Y-127615214D02*
X342560438Y-127662833D01*
X342560438Y-127662833D02*
X342512819Y-127758071D01*
X267312819Y-87502714D02*
X266312819Y-87502714D01*
X266312819Y-87502714D02*
X266312819Y-87740809D01*
X266312819Y-87740809D02*
X266360438Y-87883666D01*
X266360438Y-87883666D02*
X266455676Y-87978904D01*
X266455676Y-87978904D02*
X266550914Y-88026523D01*
X266550914Y-88026523D02*
X266741390Y-88074142D01*
X266741390Y-88074142D02*
X266884247Y-88074142D01*
X266884247Y-88074142D02*
X267074723Y-88026523D01*
X267074723Y-88026523D02*
X267169961Y-87978904D01*
X267169961Y-87978904D02*
X267265200Y-87883666D01*
X267265200Y-87883666D02*
X267312819Y-87740809D01*
X267312819Y-87740809D02*
X267312819Y-87502714D01*
X266312819Y-88407476D02*
X266312819Y-89026523D01*
X266312819Y-89026523D02*
X266693771Y-88693190D01*
X266693771Y-88693190D02*
X266693771Y-88836047D01*
X266693771Y-88836047D02*
X266741390Y-88931285D01*
X266741390Y-88931285D02*
X266789009Y-88978904D01*
X266789009Y-88978904D02*
X266884247Y-89026523D01*
X266884247Y-89026523D02*
X267122342Y-89026523D01*
X267122342Y-89026523D02*
X267217580Y-88978904D01*
X267217580Y-88978904D02*
X267265200Y-88931285D01*
X267265200Y-88931285D02*
X267312819Y-88836047D01*
X267312819Y-88836047D02*
X267312819Y-88550333D01*
X267312819Y-88550333D02*
X267265200Y-88455095D01*
X267265200Y-88455095D02*
X267217580Y-88407476D01*
X266312819Y-89359857D02*
X266312819Y-90026523D01*
X266312819Y-90026523D02*
X267312819Y-89597952D01*
X224132819Y-68440214D02*
X223132819Y-68440214D01*
X223132819Y-68440214D02*
X223132819Y-68678309D01*
X223132819Y-68678309D02*
X223180438Y-68821166D01*
X223180438Y-68821166D02*
X223275676Y-68916404D01*
X223275676Y-68916404D02*
X223370914Y-68964023D01*
X223370914Y-68964023D02*
X223561390Y-69011642D01*
X223561390Y-69011642D02*
X223704247Y-69011642D01*
X223704247Y-69011642D02*
X223894723Y-68964023D01*
X223894723Y-68964023D02*
X223989961Y-68916404D01*
X223989961Y-68916404D02*
X224085200Y-68821166D01*
X224085200Y-68821166D02*
X224132819Y-68678309D01*
X224132819Y-68678309D02*
X224132819Y-68440214D01*
X223228057Y-69392595D02*
X223180438Y-69440214D01*
X223180438Y-69440214D02*
X223132819Y-69535452D01*
X223132819Y-69535452D02*
X223132819Y-69773547D01*
X223132819Y-69773547D02*
X223180438Y-69868785D01*
X223180438Y-69868785D02*
X223228057Y-69916404D01*
X223228057Y-69916404D02*
X223323295Y-69964023D01*
X223323295Y-69964023D02*
X223418533Y-69964023D01*
X223418533Y-69964023D02*
X223561390Y-69916404D01*
X223561390Y-69916404D02*
X224132819Y-69344976D01*
X224132819Y-69344976D02*
X224132819Y-69964023D01*
X224132819Y-70916404D02*
X224132819Y-70344976D01*
X224132819Y-70630690D02*
X223132819Y-70630690D01*
X223132819Y-70630690D02*
X223275676Y-70535452D01*
X223275676Y-70535452D02*
X223370914Y-70440214D01*
X223370914Y-70440214D02*
X223418533Y-70344976D01*
X157553819Y-49866405D02*
X156553819Y-49866405D01*
X156553819Y-49866405D02*
X156553819Y-50104500D01*
X156553819Y-50104500D02*
X156601438Y-50247357D01*
X156601438Y-50247357D02*
X156696676Y-50342595D01*
X156696676Y-50342595D02*
X156791914Y-50390214D01*
X156791914Y-50390214D02*
X156982390Y-50437833D01*
X156982390Y-50437833D02*
X157125247Y-50437833D01*
X157125247Y-50437833D02*
X157315723Y-50390214D01*
X157315723Y-50390214D02*
X157410961Y-50342595D01*
X157410961Y-50342595D02*
X157506200Y-50247357D01*
X157506200Y-50247357D02*
X157553819Y-50104500D01*
X157553819Y-50104500D02*
X157553819Y-49866405D01*
X156887152Y-51294976D02*
X157553819Y-51294976D01*
X156506200Y-51056881D02*
X157220485Y-50818786D01*
X157220485Y-50818786D02*
X157220485Y-51437833D01*
X340972819Y-68440214D02*
X339972819Y-68440214D01*
X339972819Y-68440214D02*
X339972819Y-68678309D01*
X339972819Y-68678309D02*
X340020438Y-68821166D01*
X340020438Y-68821166D02*
X340115676Y-68916404D01*
X340115676Y-68916404D02*
X340210914Y-68964023D01*
X340210914Y-68964023D02*
X340401390Y-69011642D01*
X340401390Y-69011642D02*
X340544247Y-69011642D01*
X340544247Y-69011642D02*
X340734723Y-68964023D01*
X340734723Y-68964023D02*
X340829961Y-68916404D01*
X340829961Y-68916404D02*
X340925200Y-68821166D01*
X340925200Y-68821166D02*
X340972819Y-68678309D01*
X340972819Y-68678309D02*
X340972819Y-68440214D01*
X340068057Y-69392595D02*
X340020438Y-69440214D01*
X340020438Y-69440214D02*
X339972819Y-69535452D01*
X339972819Y-69535452D02*
X339972819Y-69773547D01*
X339972819Y-69773547D02*
X340020438Y-69868785D01*
X340020438Y-69868785D02*
X340068057Y-69916404D01*
X340068057Y-69916404D02*
X340163295Y-69964023D01*
X340163295Y-69964023D02*
X340258533Y-69964023D01*
X340258533Y-69964023D02*
X340401390Y-69916404D01*
X340401390Y-69916404D02*
X340972819Y-69344976D01*
X340972819Y-69344976D02*
X340972819Y-69964023D01*
X339972819Y-70297357D02*
X339972819Y-70964023D01*
X339972819Y-70964023D02*
X340972819Y-70535452D01*
X319382819Y-68440214D02*
X318382819Y-68440214D01*
X318382819Y-68440214D02*
X318382819Y-68678309D01*
X318382819Y-68678309D02*
X318430438Y-68821166D01*
X318430438Y-68821166D02*
X318525676Y-68916404D01*
X318525676Y-68916404D02*
X318620914Y-68964023D01*
X318620914Y-68964023D02*
X318811390Y-69011642D01*
X318811390Y-69011642D02*
X318954247Y-69011642D01*
X318954247Y-69011642D02*
X319144723Y-68964023D01*
X319144723Y-68964023D02*
X319239961Y-68916404D01*
X319239961Y-68916404D02*
X319335200Y-68821166D01*
X319335200Y-68821166D02*
X319382819Y-68678309D01*
X319382819Y-68678309D02*
X319382819Y-68440214D01*
X318478057Y-69392595D02*
X318430438Y-69440214D01*
X318430438Y-69440214D02*
X318382819Y-69535452D01*
X318382819Y-69535452D02*
X318382819Y-69773547D01*
X318382819Y-69773547D02*
X318430438Y-69868785D01*
X318430438Y-69868785D02*
X318478057Y-69916404D01*
X318478057Y-69916404D02*
X318573295Y-69964023D01*
X318573295Y-69964023D02*
X318668533Y-69964023D01*
X318668533Y-69964023D02*
X318811390Y-69916404D01*
X318811390Y-69916404D02*
X319382819Y-69344976D01*
X319382819Y-69344976D02*
X319382819Y-69964023D01*
X318382819Y-70821166D02*
X318382819Y-70630690D01*
X318382819Y-70630690D02*
X318430438Y-70535452D01*
X318430438Y-70535452D02*
X318478057Y-70487833D01*
X318478057Y-70487833D02*
X318620914Y-70392595D01*
X318620914Y-70392595D02*
X318811390Y-70344976D01*
X318811390Y-70344976D02*
X319192342Y-70344976D01*
X319192342Y-70344976D02*
X319287580Y-70392595D01*
X319287580Y-70392595D02*
X319335200Y-70440214D01*
X319335200Y-70440214D02*
X319382819Y-70535452D01*
X319382819Y-70535452D02*
X319382819Y-70725928D01*
X319382819Y-70725928D02*
X319335200Y-70821166D01*
X319335200Y-70821166D02*
X319287580Y-70868785D01*
X319287580Y-70868785D02*
X319192342Y-70916404D01*
X319192342Y-70916404D02*
X318954247Y-70916404D01*
X318954247Y-70916404D02*
X318859009Y-70868785D01*
X318859009Y-70868785D02*
X318811390Y-70821166D01*
X318811390Y-70821166D02*
X318763771Y-70725928D01*
X318763771Y-70725928D02*
X318763771Y-70535452D01*
X318763771Y-70535452D02*
X318811390Y-70440214D01*
X318811390Y-70440214D02*
X318859009Y-70392595D01*
X318859009Y-70392595D02*
X318954247Y-70344976D01*
X366372819Y-68452714D02*
X365372819Y-68452714D01*
X365372819Y-68452714D02*
X365372819Y-68690809D01*
X365372819Y-68690809D02*
X365420438Y-68833666D01*
X365420438Y-68833666D02*
X365515676Y-68928904D01*
X365515676Y-68928904D02*
X365610914Y-68976523D01*
X365610914Y-68976523D02*
X365801390Y-69024142D01*
X365801390Y-69024142D02*
X365944247Y-69024142D01*
X365944247Y-69024142D02*
X366134723Y-68976523D01*
X366134723Y-68976523D02*
X366229961Y-68928904D01*
X366229961Y-68928904D02*
X366325200Y-68833666D01*
X366325200Y-68833666D02*
X366372819Y-68690809D01*
X366372819Y-68690809D02*
X366372819Y-68452714D01*
X365468057Y-69405095D02*
X365420438Y-69452714D01*
X365420438Y-69452714D02*
X365372819Y-69547952D01*
X365372819Y-69547952D02*
X365372819Y-69786047D01*
X365372819Y-69786047D02*
X365420438Y-69881285D01*
X365420438Y-69881285D02*
X365468057Y-69928904D01*
X365468057Y-69928904D02*
X365563295Y-69976523D01*
X365563295Y-69976523D02*
X365658533Y-69976523D01*
X365658533Y-69976523D02*
X365801390Y-69928904D01*
X365801390Y-69928904D02*
X366372819Y-69357476D01*
X366372819Y-69357476D02*
X366372819Y-69976523D01*
X365801390Y-70547952D02*
X365753771Y-70452714D01*
X365753771Y-70452714D02*
X365706152Y-70405095D01*
X365706152Y-70405095D02*
X365610914Y-70357476D01*
X365610914Y-70357476D02*
X365563295Y-70357476D01*
X365563295Y-70357476D02*
X365468057Y-70405095D01*
X365468057Y-70405095D02*
X365420438Y-70452714D01*
X365420438Y-70452714D02*
X365372819Y-70547952D01*
X365372819Y-70547952D02*
X365372819Y-70738428D01*
X365372819Y-70738428D02*
X365420438Y-70833666D01*
X365420438Y-70833666D02*
X365468057Y-70881285D01*
X365468057Y-70881285D02*
X365563295Y-70928904D01*
X365563295Y-70928904D02*
X365610914Y-70928904D01*
X365610914Y-70928904D02*
X365706152Y-70881285D01*
X365706152Y-70881285D02*
X365753771Y-70833666D01*
X365753771Y-70833666D02*
X365801390Y-70738428D01*
X365801390Y-70738428D02*
X365801390Y-70547952D01*
X365801390Y-70547952D02*
X365849009Y-70452714D01*
X365849009Y-70452714D02*
X365896628Y-70405095D01*
X365896628Y-70405095D02*
X365991866Y-70357476D01*
X365991866Y-70357476D02*
X366182342Y-70357476D01*
X366182342Y-70357476D02*
X366277580Y-70405095D01*
X366277580Y-70405095D02*
X366325200Y-70452714D01*
X366325200Y-70452714D02*
X366372819Y-70547952D01*
X366372819Y-70547952D02*
X366372819Y-70738428D01*
X366372819Y-70738428D02*
X366325200Y-70833666D01*
X366325200Y-70833666D02*
X366277580Y-70881285D01*
X366277580Y-70881285D02*
X366182342Y-70928904D01*
X366182342Y-70928904D02*
X365991866Y-70928904D01*
X365991866Y-70928904D02*
X365896628Y-70881285D01*
X365896628Y-70881285D02*
X365849009Y-70833666D01*
X365849009Y-70833666D02*
X365801390Y-70738428D01*
X290807819Y-49390214D02*
X289807819Y-49390214D01*
X289807819Y-49390214D02*
X289807819Y-49628309D01*
X289807819Y-49628309D02*
X289855438Y-49771166D01*
X289855438Y-49771166D02*
X289950676Y-49866404D01*
X289950676Y-49866404D02*
X290045914Y-49914023D01*
X290045914Y-49914023D02*
X290236390Y-49961642D01*
X290236390Y-49961642D02*
X290379247Y-49961642D01*
X290379247Y-49961642D02*
X290569723Y-49914023D01*
X290569723Y-49914023D02*
X290664961Y-49866404D01*
X290664961Y-49866404D02*
X290760200Y-49771166D01*
X290760200Y-49771166D02*
X290807819Y-49628309D01*
X290807819Y-49628309D02*
X290807819Y-49390214D01*
X290807819Y-50914023D02*
X290807819Y-50342595D01*
X290807819Y-50628309D02*
X289807819Y-50628309D01*
X289807819Y-50628309D02*
X289950676Y-50533071D01*
X289950676Y-50533071D02*
X290045914Y-50437833D01*
X290045914Y-50437833D02*
X290093533Y-50342595D01*
X290807819Y-51866404D02*
X290807819Y-51294976D01*
X290807819Y-51580690D02*
X289807819Y-51580690D01*
X289807819Y-51580690D02*
X289950676Y-51485452D01*
X289950676Y-51485452D02*
X290045914Y-51390214D01*
X290045914Y-51390214D02*
X290093533Y-51294976D01*
X248262819Y-87502714D02*
X247262819Y-87502714D01*
X247262819Y-87502714D02*
X247262819Y-87740809D01*
X247262819Y-87740809D02*
X247310438Y-87883666D01*
X247310438Y-87883666D02*
X247405676Y-87978904D01*
X247405676Y-87978904D02*
X247500914Y-88026523D01*
X247500914Y-88026523D02*
X247691390Y-88074142D01*
X247691390Y-88074142D02*
X247834247Y-88074142D01*
X247834247Y-88074142D02*
X248024723Y-88026523D01*
X248024723Y-88026523D02*
X248119961Y-87978904D01*
X248119961Y-87978904D02*
X248215200Y-87883666D01*
X248215200Y-87883666D02*
X248262819Y-87740809D01*
X248262819Y-87740809D02*
X248262819Y-87502714D01*
X247262819Y-88407476D02*
X247262819Y-89026523D01*
X247262819Y-89026523D02*
X247643771Y-88693190D01*
X247643771Y-88693190D02*
X247643771Y-88836047D01*
X247643771Y-88836047D02*
X247691390Y-88931285D01*
X247691390Y-88931285D02*
X247739009Y-88978904D01*
X247739009Y-88978904D02*
X247834247Y-89026523D01*
X247834247Y-89026523D02*
X248072342Y-89026523D01*
X248072342Y-89026523D02*
X248167580Y-88978904D01*
X248167580Y-88978904D02*
X248215200Y-88931285D01*
X248215200Y-88931285D02*
X248262819Y-88836047D01*
X248262819Y-88836047D02*
X248262819Y-88550333D01*
X248262819Y-88550333D02*
X248215200Y-88455095D01*
X248215200Y-88455095D02*
X248167580Y-88407476D01*
X247262819Y-89883666D02*
X247262819Y-89693190D01*
X247262819Y-89693190D02*
X247310438Y-89597952D01*
X247310438Y-89597952D02*
X247358057Y-89550333D01*
X247358057Y-89550333D02*
X247500914Y-89455095D01*
X247500914Y-89455095D02*
X247691390Y-89407476D01*
X247691390Y-89407476D02*
X248072342Y-89407476D01*
X248072342Y-89407476D02*
X248167580Y-89455095D01*
X248167580Y-89455095D02*
X248215200Y-89502714D01*
X248215200Y-89502714D02*
X248262819Y-89597952D01*
X248262819Y-89597952D02*
X248262819Y-89788428D01*
X248262819Y-89788428D02*
X248215200Y-89883666D01*
X248215200Y-89883666D02*
X248167580Y-89931285D01*
X248167580Y-89931285D02*
X248072342Y-89978904D01*
X248072342Y-89978904D02*
X247834247Y-89978904D01*
X247834247Y-89978904D02*
X247739009Y-89931285D01*
X247739009Y-89931285D02*
X247691390Y-89883666D01*
X247691390Y-89883666D02*
X247643771Y-89788428D01*
X247643771Y-89788428D02*
X247643771Y-89597952D01*
X247643771Y-89597952D02*
X247691390Y-89502714D01*
X247691390Y-89502714D02*
X247739009Y-89455095D01*
X247739009Y-89455095D02*
X247834247Y-89407476D01*
X286362819Y-87502714D02*
X285362819Y-87502714D01*
X285362819Y-87502714D02*
X285362819Y-87740809D01*
X285362819Y-87740809D02*
X285410438Y-87883666D01*
X285410438Y-87883666D02*
X285505676Y-87978904D01*
X285505676Y-87978904D02*
X285600914Y-88026523D01*
X285600914Y-88026523D02*
X285791390Y-88074142D01*
X285791390Y-88074142D02*
X285934247Y-88074142D01*
X285934247Y-88074142D02*
X286124723Y-88026523D01*
X286124723Y-88026523D02*
X286219961Y-87978904D01*
X286219961Y-87978904D02*
X286315200Y-87883666D01*
X286315200Y-87883666D02*
X286362819Y-87740809D01*
X286362819Y-87740809D02*
X286362819Y-87502714D01*
X285362819Y-88407476D02*
X285362819Y-89026523D01*
X285362819Y-89026523D02*
X285743771Y-88693190D01*
X285743771Y-88693190D02*
X285743771Y-88836047D01*
X285743771Y-88836047D02*
X285791390Y-88931285D01*
X285791390Y-88931285D02*
X285839009Y-88978904D01*
X285839009Y-88978904D02*
X285934247Y-89026523D01*
X285934247Y-89026523D02*
X286172342Y-89026523D01*
X286172342Y-89026523D02*
X286267580Y-88978904D01*
X286267580Y-88978904D02*
X286315200Y-88931285D01*
X286315200Y-88931285D02*
X286362819Y-88836047D01*
X286362819Y-88836047D02*
X286362819Y-88550333D01*
X286362819Y-88550333D02*
X286315200Y-88455095D01*
X286315200Y-88455095D02*
X286267580Y-88407476D01*
X285791390Y-89597952D02*
X285743771Y-89502714D01*
X285743771Y-89502714D02*
X285696152Y-89455095D01*
X285696152Y-89455095D02*
X285600914Y-89407476D01*
X285600914Y-89407476D02*
X285553295Y-89407476D01*
X285553295Y-89407476D02*
X285458057Y-89455095D01*
X285458057Y-89455095D02*
X285410438Y-89502714D01*
X285410438Y-89502714D02*
X285362819Y-89597952D01*
X285362819Y-89597952D02*
X285362819Y-89788428D01*
X285362819Y-89788428D02*
X285410438Y-89883666D01*
X285410438Y-89883666D02*
X285458057Y-89931285D01*
X285458057Y-89931285D02*
X285553295Y-89978904D01*
X285553295Y-89978904D02*
X285600914Y-89978904D01*
X285600914Y-89978904D02*
X285696152Y-89931285D01*
X285696152Y-89931285D02*
X285743771Y-89883666D01*
X285743771Y-89883666D02*
X285791390Y-89788428D01*
X285791390Y-89788428D02*
X285791390Y-89597952D01*
X285791390Y-89597952D02*
X285839009Y-89502714D01*
X285839009Y-89502714D02*
X285886628Y-89455095D01*
X285886628Y-89455095D02*
X285981866Y-89407476D01*
X285981866Y-89407476D02*
X286172342Y-89407476D01*
X286172342Y-89407476D02*
X286267580Y-89455095D01*
X286267580Y-89455095D02*
X286315200Y-89502714D01*
X286315200Y-89502714D02*
X286362819Y-89597952D01*
X286362819Y-89597952D02*
X286362819Y-89788428D01*
X286362819Y-89788428D02*
X286315200Y-89883666D01*
X286315200Y-89883666D02*
X286267580Y-89931285D01*
X286267580Y-89931285D02*
X286172342Y-89978904D01*
X286172342Y-89978904D02*
X285981866Y-89978904D01*
X285981866Y-89978904D02*
X285886628Y-89931285D01*
X285886628Y-89931285D02*
X285839009Y-89883666D01*
X285839009Y-89883666D02*
X285791390Y-89788428D01*
X105483819Y-124967714D02*
X104483819Y-124967714D01*
X104483819Y-124967714D02*
X104483819Y-125205809D01*
X104483819Y-125205809D02*
X104531438Y-125348666D01*
X104531438Y-125348666D02*
X104626676Y-125443904D01*
X104626676Y-125443904D02*
X104721914Y-125491523D01*
X104721914Y-125491523D02*
X104912390Y-125539142D01*
X104912390Y-125539142D02*
X105055247Y-125539142D01*
X105055247Y-125539142D02*
X105245723Y-125491523D01*
X105245723Y-125491523D02*
X105340961Y-125443904D01*
X105340961Y-125443904D02*
X105436200Y-125348666D01*
X105436200Y-125348666D02*
X105483819Y-125205809D01*
X105483819Y-125205809D02*
X105483819Y-124967714D01*
X104483819Y-126443904D02*
X104483819Y-125967714D01*
X104483819Y-125967714D02*
X104960009Y-125920095D01*
X104960009Y-125920095D02*
X104912390Y-125967714D01*
X104912390Y-125967714D02*
X104864771Y-126062952D01*
X104864771Y-126062952D02*
X104864771Y-126301047D01*
X104864771Y-126301047D02*
X104912390Y-126396285D01*
X104912390Y-126396285D02*
X104960009Y-126443904D01*
X104960009Y-126443904D02*
X105055247Y-126491523D01*
X105055247Y-126491523D02*
X105293342Y-126491523D01*
X105293342Y-126491523D02*
X105388580Y-126443904D01*
X105388580Y-126443904D02*
X105436200Y-126396285D01*
X105436200Y-126396285D02*
X105483819Y-126301047D01*
X105483819Y-126301047D02*
X105483819Y-126062952D01*
X105483819Y-126062952D02*
X105436200Y-125967714D01*
X105436200Y-125967714D02*
X105388580Y-125920095D01*
X104817152Y-127348666D02*
X105483819Y-127348666D01*
X104436200Y-127110571D02*
X105150485Y-126872476D01*
X105150485Y-126872476D02*
X105150485Y-127491523D01*
X181048819Y-106540214D02*
X180048819Y-106540214D01*
X180048819Y-106540214D02*
X180048819Y-106778309D01*
X180048819Y-106778309D02*
X180096438Y-106921166D01*
X180096438Y-106921166D02*
X180191676Y-107016404D01*
X180191676Y-107016404D02*
X180286914Y-107064023D01*
X180286914Y-107064023D02*
X180477390Y-107111642D01*
X180477390Y-107111642D02*
X180620247Y-107111642D01*
X180620247Y-107111642D02*
X180810723Y-107064023D01*
X180810723Y-107064023D02*
X180905961Y-107016404D01*
X180905961Y-107016404D02*
X181001200Y-106921166D01*
X181001200Y-106921166D02*
X181048819Y-106778309D01*
X181048819Y-106778309D02*
X181048819Y-106540214D01*
X180382152Y-107968785D02*
X181048819Y-107968785D01*
X180001200Y-107730690D02*
X180715485Y-107492595D01*
X180715485Y-107492595D02*
X180715485Y-108111642D01*
X180048819Y-108968785D02*
X180048819Y-108492595D01*
X180048819Y-108492595D02*
X180525009Y-108444976D01*
X180525009Y-108444976D02*
X180477390Y-108492595D01*
X180477390Y-108492595D02*
X180429771Y-108587833D01*
X180429771Y-108587833D02*
X180429771Y-108825928D01*
X180429771Y-108825928D02*
X180477390Y-108921166D01*
X180477390Y-108921166D02*
X180525009Y-108968785D01*
X180525009Y-108968785D02*
X180620247Y-109016404D01*
X180620247Y-109016404D02*
X180858342Y-109016404D01*
X180858342Y-109016404D02*
X180953580Y-108968785D01*
X180953580Y-108968785D02*
X181001200Y-108921166D01*
X181001200Y-108921166D02*
X181048819Y-108825928D01*
X181048819Y-108825928D02*
X181048819Y-108587833D01*
X181048819Y-108587833D02*
X181001200Y-108492595D01*
X181001200Y-108492595D02*
X180953580Y-108444976D01*
X176507819Y-49866405D02*
X175507819Y-49866405D01*
X175507819Y-49866405D02*
X175507819Y-50104500D01*
X175507819Y-50104500D02*
X175555438Y-50247357D01*
X175555438Y-50247357D02*
X175650676Y-50342595D01*
X175650676Y-50342595D02*
X175745914Y-50390214D01*
X175745914Y-50390214D02*
X175936390Y-50437833D01*
X175936390Y-50437833D02*
X176079247Y-50437833D01*
X176079247Y-50437833D02*
X176269723Y-50390214D01*
X176269723Y-50390214D02*
X176364961Y-50342595D01*
X176364961Y-50342595D02*
X176460200Y-50247357D01*
X176460200Y-50247357D02*
X176507819Y-50104500D01*
X176507819Y-50104500D02*
X176507819Y-49866405D01*
X175507819Y-51342595D02*
X175507819Y-50866405D01*
X175507819Y-50866405D02*
X175984009Y-50818786D01*
X175984009Y-50818786D02*
X175936390Y-50866405D01*
X175936390Y-50866405D02*
X175888771Y-50961643D01*
X175888771Y-50961643D02*
X175888771Y-51199738D01*
X175888771Y-51199738D02*
X175936390Y-51294976D01*
X175936390Y-51294976D02*
X175984009Y-51342595D01*
X175984009Y-51342595D02*
X176079247Y-51390214D01*
X176079247Y-51390214D02*
X176317342Y-51390214D01*
X176317342Y-51390214D02*
X176412580Y-51342595D01*
X176412580Y-51342595D02*
X176460200Y-51294976D01*
X176460200Y-51294976D02*
X176507819Y-51199738D01*
X176507819Y-51199738D02*
X176507819Y-50961643D01*
X176507819Y-50961643D02*
X176460200Y-50866405D01*
X176460200Y-50866405D02*
X176412580Y-50818786D01*
X161998819Y-106540214D02*
X160998819Y-106540214D01*
X160998819Y-106540214D02*
X160998819Y-106778309D01*
X160998819Y-106778309D02*
X161046438Y-106921166D01*
X161046438Y-106921166D02*
X161141676Y-107016404D01*
X161141676Y-107016404D02*
X161236914Y-107064023D01*
X161236914Y-107064023D02*
X161427390Y-107111642D01*
X161427390Y-107111642D02*
X161570247Y-107111642D01*
X161570247Y-107111642D02*
X161760723Y-107064023D01*
X161760723Y-107064023D02*
X161855961Y-107016404D01*
X161855961Y-107016404D02*
X161951200Y-106921166D01*
X161951200Y-106921166D02*
X161998819Y-106778309D01*
X161998819Y-106778309D02*
X161998819Y-106540214D01*
X161332152Y-107968785D02*
X161998819Y-107968785D01*
X160951200Y-107730690D02*
X161665485Y-107492595D01*
X161665485Y-107492595D02*
X161665485Y-108111642D01*
X161332152Y-108921166D02*
X161998819Y-108921166D01*
X160951200Y-108683071D02*
X161665485Y-108444976D01*
X161665485Y-108444976D02*
X161665485Y-109064023D01*
X276202819Y-106540214D02*
X275202819Y-106540214D01*
X275202819Y-106540214D02*
X275202819Y-106778309D01*
X275202819Y-106778309D02*
X275250438Y-106921166D01*
X275250438Y-106921166D02*
X275345676Y-107016404D01*
X275345676Y-107016404D02*
X275440914Y-107064023D01*
X275440914Y-107064023D02*
X275631390Y-107111642D01*
X275631390Y-107111642D02*
X275774247Y-107111642D01*
X275774247Y-107111642D02*
X275964723Y-107064023D01*
X275964723Y-107064023D02*
X276059961Y-107016404D01*
X276059961Y-107016404D02*
X276155200Y-106921166D01*
X276155200Y-106921166D02*
X276202819Y-106778309D01*
X276202819Y-106778309D02*
X276202819Y-106540214D01*
X275202819Y-108016404D02*
X275202819Y-107540214D01*
X275202819Y-107540214D02*
X275679009Y-107492595D01*
X275679009Y-107492595D02*
X275631390Y-107540214D01*
X275631390Y-107540214D02*
X275583771Y-107635452D01*
X275583771Y-107635452D02*
X275583771Y-107873547D01*
X275583771Y-107873547D02*
X275631390Y-107968785D01*
X275631390Y-107968785D02*
X275679009Y-108016404D01*
X275679009Y-108016404D02*
X275774247Y-108064023D01*
X275774247Y-108064023D02*
X276012342Y-108064023D01*
X276012342Y-108064023D02*
X276107580Y-108016404D01*
X276107580Y-108016404D02*
X276155200Y-107968785D01*
X276155200Y-107968785D02*
X276202819Y-107873547D01*
X276202819Y-107873547D02*
X276202819Y-107635452D01*
X276202819Y-107635452D02*
X276155200Y-107540214D01*
X276155200Y-107540214D02*
X276107580Y-107492595D01*
X275202819Y-108683071D02*
X275202819Y-108778309D01*
X275202819Y-108778309D02*
X275250438Y-108873547D01*
X275250438Y-108873547D02*
X275298057Y-108921166D01*
X275298057Y-108921166D02*
X275393295Y-108968785D01*
X275393295Y-108968785D02*
X275583771Y-109016404D01*
X275583771Y-109016404D02*
X275821866Y-109016404D01*
X275821866Y-109016404D02*
X276012342Y-108968785D01*
X276012342Y-108968785D02*
X276107580Y-108921166D01*
X276107580Y-108921166D02*
X276155200Y-108873547D01*
X276155200Y-108873547D02*
X276202819Y-108778309D01*
X276202819Y-108778309D02*
X276202819Y-108683071D01*
X276202819Y-108683071D02*
X276155200Y-108587833D01*
X276155200Y-108587833D02*
X276107580Y-108540214D01*
X276107580Y-108540214D02*
X276012342Y-108492595D01*
X276012342Y-108492595D02*
X275821866Y-108444976D01*
X275821866Y-108444976D02*
X275583771Y-108444976D01*
X275583771Y-108444976D02*
X275393295Y-108492595D01*
X275393295Y-108492595D02*
X275298057Y-108540214D01*
X275298057Y-108540214D02*
X275250438Y-108587833D01*
X275250438Y-108587833D02*
X275202819Y-108683071D01*
X319700319Y-125615214D02*
X318700319Y-125615214D01*
X318700319Y-125615214D02*
X318700319Y-125853309D01*
X318700319Y-125853309D02*
X318747938Y-125996166D01*
X318747938Y-125996166D02*
X318843176Y-126091404D01*
X318843176Y-126091404D02*
X318938414Y-126139023D01*
X318938414Y-126139023D02*
X319128890Y-126186642D01*
X319128890Y-126186642D02*
X319271747Y-126186642D01*
X319271747Y-126186642D02*
X319462223Y-126139023D01*
X319462223Y-126139023D02*
X319557461Y-126091404D01*
X319557461Y-126091404D02*
X319652700Y-125996166D01*
X319652700Y-125996166D02*
X319700319Y-125853309D01*
X319700319Y-125853309D02*
X319700319Y-125615214D01*
X318700319Y-127091404D02*
X318700319Y-126615214D01*
X318700319Y-126615214D02*
X319176509Y-126567595D01*
X319176509Y-126567595D02*
X319128890Y-126615214D01*
X319128890Y-126615214D02*
X319081271Y-126710452D01*
X319081271Y-126710452D02*
X319081271Y-126948547D01*
X319081271Y-126948547D02*
X319128890Y-127043785D01*
X319128890Y-127043785D02*
X319176509Y-127091404D01*
X319176509Y-127091404D02*
X319271747Y-127139023D01*
X319271747Y-127139023D02*
X319509842Y-127139023D01*
X319509842Y-127139023D02*
X319605080Y-127091404D01*
X319605080Y-127091404D02*
X319652700Y-127043785D01*
X319652700Y-127043785D02*
X319700319Y-126948547D01*
X319700319Y-126948547D02*
X319700319Y-126710452D01*
X319700319Y-126710452D02*
X319652700Y-126615214D01*
X319652700Y-126615214D02*
X319605080Y-126567595D01*
X319700319Y-127615214D02*
X319700319Y-127805690D01*
X319700319Y-127805690D02*
X319652700Y-127900928D01*
X319652700Y-127900928D02*
X319605080Y-127948547D01*
X319605080Y-127948547D02*
X319462223Y-128043785D01*
X319462223Y-128043785D02*
X319271747Y-128091404D01*
X319271747Y-128091404D02*
X318890795Y-128091404D01*
X318890795Y-128091404D02*
X318795557Y-128043785D01*
X318795557Y-128043785D02*
X318747938Y-127996166D01*
X318747938Y-127996166D02*
X318700319Y-127900928D01*
X318700319Y-127900928D02*
X318700319Y-127710452D01*
X318700319Y-127710452D02*
X318747938Y-127615214D01*
X318747938Y-127615214D02*
X318795557Y-127567595D01*
X318795557Y-127567595D02*
X318890795Y-127519976D01*
X318890795Y-127519976D02*
X319128890Y-127519976D01*
X319128890Y-127519976D02*
X319224128Y-127567595D01*
X319224128Y-127567595D02*
X319271747Y-127615214D01*
X319271747Y-127615214D02*
X319319366Y-127710452D01*
X319319366Y-127710452D02*
X319319366Y-127900928D01*
X319319366Y-127900928D02*
X319271747Y-127996166D01*
X319271747Y-127996166D02*
X319224128Y-128043785D01*
X319224128Y-128043785D02*
X319128890Y-128091404D01*
X366372819Y-125615214D02*
X365372819Y-125615214D01*
X365372819Y-125615214D02*
X365372819Y-125853309D01*
X365372819Y-125853309D02*
X365420438Y-125996166D01*
X365420438Y-125996166D02*
X365515676Y-126091404D01*
X365515676Y-126091404D02*
X365610914Y-126139023D01*
X365610914Y-126139023D02*
X365801390Y-126186642D01*
X365801390Y-126186642D02*
X365944247Y-126186642D01*
X365944247Y-126186642D02*
X366134723Y-126139023D01*
X366134723Y-126139023D02*
X366229961Y-126091404D01*
X366229961Y-126091404D02*
X366325200Y-125996166D01*
X366325200Y-125996166D02*
X366372819Y-125853309D01*
X366372819Y-125853309D02*
X366372819Y-125615214D01*
X365372819Y-127043785D02*
X365372819Y-126853309D01*
X365372819Y-126853309D02*
X365420438Y-126758071D01*
X365420438Y-126758071D02*
X365468057Y-126710452D01*
X365468057Y-126710452D02*
X365610914Y-126615214D01*
X365610914Y-126615214D02*
X365801390Y-126567595D01*
X365801390Y-126567595D02*
X366182342Y-126567595D01*
X366182342Y-126567595D02*
X366277580Y-126615214D01*
X366277580Y-126615214D02*
X366325200Y-126662833D01*
X366325200Y-126662833D02*
X366372819Y-126758071D01*
X366372819Y-126758071D02*
X366372819Y-126948547D01*
X366372819Y-126948547D02*
X366325200Y-127043785D01*
X366325200Y-127043785D02*
X366277580Y-127091404D01*
X366277580Y-127091404D02*
X366182342Y-127139023D01*
X366182342Y-127139023D02*
X365944247Y-127139023D01*
X365944247Y-127139023D02*
X365849009Y-127091404D01*
X365849009Y-127091404D02*
X365801390Y-127043785D01*
X365801390Y-127043785D02*
X365753771Y-126948547D01*
X365753771Y-126948547D02*
X365753771Y-126758071D01*
X365753771Y-126758071D02*
X365801390Y-126662833D01*
X365801390Y-126662833D02*
X365849009Y-126615214D01*
X365849009Y-126615214D02*
X365944247Y-126567595D01*
X366372819Y-128091404D02*
X366372819Y-127519976D01*
X366372819Y-127805690D02*
X365372819Y-127805690D01*
X365372819Y-127805690D02*
X365515676Y-127710452D01*
X365515676Y-127710452D02*
X365610914Y-127615214D01*
X365610914Y-127615214D02*
X365658533Y-127519976D01*
D11*
%TO.C,D40*%
X326478000Y-87717000D02*
X326478000Y-90402000D01*
X326478000Y-90402000D02*
X328398000Y-90402000D01*
X328398000Y-90402000D02*
X328398000Y-87717000D01*
%TO.C,D32*%
X168998000Y-87717000D02*
X168998000Y-90402000D01*
X168998000Y-90402000D02*
X170918000Y-90402000D01*
X170918000Y-90402000D02*
X170918000Y-87717000D01*
%TO.C,D35*%
X226148000Y-87717000D02*
X226148000Y-90402000D01*
X226148000Y-90402000D02*
X228068000Y-90402000D01*
X228068000Y-90402000D02*
X228068000Y-87717000D01*
%TO.C,D25*%
X297268000Y-68654500D02*
X297268000Y-71339500D01*
X297268000Y-71339500D02*
X299188000Y-71339500D01*
X299188000Y-71339500D02*
X299188000Y-68654500D01*
%TO.C,D49*%
X254088000Y-106754500D02*
X254088000Y-109439500D01*
X254088000Y-109439500D02*
X256008000Y-109439500D01*
X256008000Y-109439500D02*
X256008000Y-106754500D01*
%TO.C,D55*%
X126135500Y-125182000D02*
X126135500Y-127867000D01*
X126135500Y-127867000D02*
X128055500Y-127867000D01*
X128055500Y-127867000D02*
X128055500Y-125182000D01*
%TO.C,D51*%
X292188000Y-106754500D02*
X292188000Y-109439500D01*
X292188000Y-109439500D02*
X294108000Y-109439500D01*
X294108000Y-109439500D02*
X294108000Y-106754500D01*
%TO.C,D18*%
X163918000Y-68654500D02*
X163918000Y-71339500D01*
X163918000Y-71339500D02*
X165838000Y-71339500D01*
X165838000Y-71339500D02*
X165838000Y-68654500D01*
%TO.C,D12*%
X306793000Y-49604500D02*
X306793000Y-52289500D01*
X306793000Y-52289500D02*
X308713000Y-52289500D01*
X308713000Y-52289500D02*
X308713000Y-49604500D01*
%TO.C,D6*%
X192493000Y-49604500D02*
X192493000Y-52289500D01*
X192493000Y-52289500D02*
X194413000Y-52289500D01*
X194413000Y-52289500D02*
X194413000Y-49604500D01*
%TO.C,D3*%
X135343000Y-49604500D02*
X135343000Y-52289500D01*
X135343000Y-52289500D02*
X137263000Y-52289500D01*
X137263000Y-52289500D02*
X137263000Y-49604500D01*
%TO.C,D8*%
X230593000Y-49604500D02*
X230593000Y-52289500D01*
X230593000Y-52289500D02*
X232513000Y-52289500D01*
X232513000Y-52289500D02*
X232513000Y-49604500D01*
%TO.C,D10*%
X268693000Y-49604500D02*
X268693000Y-52289500D01*
X268693000Y-52289500D02*
X270613000Y-52289500D01*
X270613000Y-52289500D02*
X270613000Y-49604500D01*
%TO.C,D14*%
X363308000Y-49617000D02*
X363308000Y-52302000D01*
X363308000Y-52302000D02*
X365228000Y-52302000D01*
X365228000Y-52302000D02*
X365228000Y-49617000D01*
%TO.C,D16*%
X125818000Y-68654500D02*
X125818000Y-71339500D01*
X125818000Y-71339500D02*
X127738000Y-71339500D01*
X127738000Y-71339500D02*
X127738000Y-68654500D01*
%TO.C,D30*%
X130898000Y-87717000D02*
X130898000Y-90402000D01*
X130898000Y-90402000D02*
X132818000Y-90402000D01*
X132818000Y-90402000D02*
X132818000Y-87717000D01*
%TO.C,D9*%
X249643000Y-49604500D02*
X249643000Y-52289500D01*
X249643000Y-52289500D02*
X251563000Y-52289500D01*
X251563000Y-52289500D02*
X251563000Y-49604500D01*
%TO.C,D41*%
X363308000Y-87717000D02*
X363308000Y-90402000D01*
X363308000Y-90402000D02*
X365228000Y-90402000D01*
X365228000Y-90402000D02*
X365228000Y-87717000D01*
%TO.C,D13*%
X330923000Y-49604500D02*
X330923000Y-52289500D01*
X330923000Y-52289500D02*
X332843000Y-52289500D01*
X332843000Y-52289500D02*
X332843000Y-49604500D01*
%TO.C,D52*%
X320128000Y-106754500D02*
X320128000Y-109439500D01*
X320128000Y-109439500D02*
X322048000Y-109439500D01*
X322048000Y-109439500D02*
X322048000Y-106754500D01*
%TO.C,D20*%
X202018000Y-68654500D02*
X202018000Y-71339500D01*
X202018000Y-71339500D02*
X203938000Y-71339500D01*
X203938000Y-71339500D02*
X203938000Y-68654500D01*
%TO.C,D57*%
X222338000Y-125817000D02*
X222338000Y-128502000D01*
X222338000Y-128502000D02*
X224258000Y-128502000D01*
X224258000Y-128502000D02*
X224258000Y-125817000D01*
%TO.C,D23*%
X259168000Y-68654500D02*
X259168000Y-71339500D01*
X259168000Y-71339500D02*
X261088000Y-71339500D01*
X261088000Y-71339500D02*
X261088000Y-68654500D01*
%TO.C,D31*%
X149948000Y-87717000D02*
X149948000Y-90402000D01*
X149948000Y-90402000D02*
X151868000Y-90402000D01*
X151868000Y-90402000D02*
X151868000Y-87717000D01*
%TO.C,D7*%
X211543000Y-49604500D02*
X211543000Y-52289500D01*
X211543000Y-52289500D02*
X213463000Y-52289500D01*
X213463000Y-52289500D02*
X213463000Y-49604500D01*
%TO.C,D47*%
X215988000Y-106754500D02*
X215988000Y-109439500D01*
X215988000Y-109439500D02*
X217908000Y-109439500D01*
X217908000Y-109439500D02*
X217908000Y-106754500D01*
%TO.C,D42*%
X115658000Y-106767000D02*
X115658000Y-109452000D01*
X115658000Y-109452000D02*
X117578000Y-109452000D01*
X117578000Y-109452000D02*
X117578000Y-106767000D01*
%TO.C,D53*%
X363308000Y-106767000D02*
X363308000Y-109452000D01*
X363308000Y-109452000D02*
X365228000Y-109452000D01*
X365228000Y-109452000D02*
X365228000Y-106767000D01*
%TO.C,D58*%
X292823000Y-125829500D02*
X292823000Y-128514500D01*
X292823000Y-128514500D02*
X294743000Y-128514500D01*
X294743000Y-128514500D02*
X294743000Y-125829500D01*
%TO.C,D22*%
X240118000Y-68654500D02*
X240118000Y-71339500D01*
X240118000Y-71339500D02*
X242038000Y-71339500D01*
X242038000Y-71339500D02*
X242038000Y-68654500D01*
%TO.C,D2*%
X116293000Y-49604500D02*
X116293000Y-52289500D01*
X116293000Y-52289500D02*
X118213000Y-52289500D01*
X118213000Y-52289500D02*
X118213000Y-49604500D01*
%TO.C,D46*%
X196938000Y-106754500D02*
X196938000Y-109439500D01*
X196938000Y-109439500D02*
X198858000Y-109439500D01*
X198858000Y-109439500D02*
X198858000Y-106754500D01*
%TO.C,D39*%
X302348000Y-87717000D02*
X302348000Y-90402000D01*
X302348000Y-90402000D02*
X304268000Y-90402000D01*
X304268000Y-90402000D02*
X304268000Y-87717000D01*
%TO.C,D56*%
X149948000Y-125182000D02*
X149948000Y-127867000D01*
X149948000Y-127867000D02*
X151868000Y-127867000D01*
X151868000Y-127867000D02*
X151868000Y-125182000D01*
%TO.C,D33*%
X188048000Y-87717000D02*
X188048000Y-90402000D01*
X188048000Y-90402000D02*
X189968000Y-90402000D01*
X189968000Y-90402000D02*
X189968000Y-87717000D01*
%TO.C,D29*%
X107403000Y-87717000D02*
X107403000Y-90402000D01*
X107403000Y-90402000D02*
X109323000Y-90402000D01*
X109323000Y-90402000D02*
X109323000Y-87717000D01*
%TO.C,D24*%
X278218000Y-68654500D02*
X278218000Y-71339500D01*
X278218000Y-71339500D02*
X280138000Y-71339500D01*
X280138000Y-71339500D02*
X280138000Y-68654500D01*
%TO.C,D48*%
X235038000Y-106754500D02*
X235038000Y-109439500D01*
X235038000Y-109439500D02*
X236958000Y-109439500D01*
X236958000Y-109439500D02*
X236958000Y-106754500D01*
%TO.C,D43*%
X139788000Y-106754500D02*
X139788000Y-109439500D01*
X139788000Y-109439500D02*
X141708000Y-109439500D01*
X141708000Y-109439500D02*
X141708000Y-106754500D01*
%TO.C,D34*%
X207098000Y-87717000D02*
X207098000Y-90402000D01*
X207098000Y-90402000D02*
X209018000Y-90402000D01*
X209018000Y-90402000D02*
X209018000Y-87717000D01*
%TO.C,D15*%
X104863000Y-68667000D02*
X104863000Y-71352000D01*
X104863000Y-71352000D02*
X106783000Y-71352000D01*
X106783000Y-71352000D02*
X106783000Y-68667000D01*
%TO.C,D17*%
X144868000Y-68654500D02*
X144868000Y-71339500D01*
X144868000Y-71339500D02*
X146788000Y-71339500D01*
X146788000Y-71339500D02*
X146788000Y-68654500D01*
%TO.C,D1*%
X97243000Y-49604500D02*
X97243000Y-52289500D01*
X97243000Y-52289500D02*
X99163000Y-52289500D01*
X99163000Y-52289500D02*
X99163000Y-49604500D01*
%TO.C,D19*%
X182968000Y-68654500D02*
X182968000Y-71339500D01*
X182968000Y-71339500D02*
X184888000Y-71339500D01*
X184888000Y-71339500D02*
X184888000Y-68654500D01*
%TO.C,D60*%
X340448000Y-125829500D02*
X340448000Y-128514500D01*
X340448000Y-128514500D02*
X342368000Y-128514500D01*
X342368000Y-128514500D02*
X342368000Y-125829500D01*
%TO.C,D37*%
X264248000Y-87717000D02*
X264248000Y-90402000D01*
X264248000Y-90402000D02*
X266168000Y-90402000D01*
X266168000Y-90402000D02*
X266168000Y-87717000D01*
%TO.C,D21*%
X221068000Y-68654500D02*
X221068000Y-71339500D01*
X221068000Y-71339500D02*
X222988000Y-71339500D01*
X222988000Y-71339500D02*
X222988000Y-68654500D01*
%TO.C,D4*%
X154393000Y-49604500D02*
X154393000Y-52289500D01*
X154393000Y-52289500D02*
X156313000Y-52289500D01*
X156313000Y-52289500D02*
X156313000Y-49604500D01*
%TO.C,D27*%
X337908000Y-68654500D02*
X337908000Y-71339500D01*
X337908000Y-71339500D02*
X339828000Y-71339500D01*
X339828000Y-71339500D02*
X339828000Y-68654500D01*
%TO.C,D26*%
X316318000Y-68654500D02*
X316318000Y-71339500D01*
X316318000Y-71339500D02*
X318238000Y-71339500D01*
X318238000Y-71339500D02*
X318238000Y-68654500D01*
%TO.C,D28*%
X363308000Y-68667000D02*
X363308000Y-71352000D01*
X363308000Y-71352000D02*
X365228000Y-71352000D01*
X365228000Y-71352000D02*
X365228000Y-68667000D01*
%TO.C,D11*%
X287743000Y-49604500D02*
X287743000Y-52289500D01*
X287743000Y-52289500D02*
X289663000Y-52289500D01*
X289663000Y-52289500D02*
X289663000Y-49604500D01*
%TO.C,D36*%
X245198000Y-87717000D02*
X245198000Y-90402000D01*
X245198000Y-90402000D02*
X247118000Y-90402000D01*
X247118000Y-90402000D02*
X247118000Y-87717000D01*
%TO.C,D38*%
X283298000Y-87717000D02*
X283298000Y-90402000D01*
X283298000Y-90402000D02*
X285218000Y-90402000D01*
X285218000Y-90402000D02*
X285218000Y-87717000D01*
%TO.C,D54*%
X102323000Y-125182000D02*
X102323000Y-127867000D01*
X102323000Y-127867000D02*
X104243000Y-127867000D01*
X104243000Y-127867000D02*
X104243000Y-125182000D01*
%TO.C,D45*%
X177888000Y-106754500D02*
X177888000Y-109439500D01*
X177888000Y-109439500D02*
X179808000Y-109439500D01*
X179808000Y-109439500D02*
X179808000Y-106754500D01*
%TO.C,D5*%
X173443000Y-49604500D02*
X173443000Y-52289500D01*
X173443000Y-52289500D02*
X175363000Y-52289500D01*
X175363000Y-52289500D02*
X175363000Y-49604500D01*
%TO.C,D44*%
X158838000Y-106754500D02*
X158838000Y-109439500D01*
X158838000Y-109439500D02*
X160758000Y-109439500D01*
X160758000Y-109439500D02*
X160758000Y-106754500D01*
%TO.C,D50*%
X273138000Y-106754500D02*
X273138000Y-109439500D01*
X273138000Y-109439500D02*
X275058000Y-109439500D01*
X275058000Y-109439500D02*
X275058000Y-106754500D01*
%TO.C,D59*%
X316635500Y-125829500D02*
X316635500Y-128514500D01*
X316635500Y-128514500D02*
X318555500Y-128514500D01*
X318555500Y-128514500D02*
X318555500Y-125829500D01*
%TO.C,D61*%
X363308000Y-125829500D02*
X363308000Y-128514500D01*
X363308000Y-128514500D02*
X365228000Y-128514500D01*
X365228000Y-128514500D02*
X365228000Y-125829500D01*
%TD*%
M02*
